<?xml version="1.0" encoding="UTF-8"?>
<svg version="1.1" xmlns="http://www.w3.org/2000/svg" width="3200" height="3200">
<path d="M0 0 C132 0 264 0 400 0 C400 33 400 66 400 100 C433 100 466 100 500 100 C500 199 500 298 500 400 C566 400 632 400 700 400 C700 433 700 466 700 500 C733 500 766 500 800 500 C800 533 800 566 800 600 C833 600 866 600 900 600 C900 633 900 666 900 700 C933 700 966 700 1000 700 C1000 832 1000 964 1000 1100 C1033 1100 1066 1100 1100 1100 C1100 1265 1100 1430 1100 1600 C1133 1600 1166 1600 1200 1600 C1200 1666 1200 1732 1200 1800 C1233 1800 1266 1800 1300 1800 C1300 1899 1300 1998 1300 2100 C1333 2100 1366 2100 1400 2100 C1400 2166 1400 2232 1400 2300 C1367 2300 1334 2300 1300 2300 C1300 2333 1300 2366 1300 2400 C1168 2400 1036 2400 900 2400 C900 2433 900 2466 900 2500 C801 2500 702 2500 600 2500 C600 2566 600 2632 600 2700 C567 2700 534 2700 500 2700 C500 2733 500 2766 500 2800 C467 2800 434 2800 400 2800 C400 2833 400 2866 400 2900 C268 2900 136 2900 0 2900 C0 2867 0 2834 0 2800 C-33 2800 -66 2800 -100 2800 C-100 2767 -100 2734 -100 2700 C-133 2700 -166 2700 -200 2700 C-200 2634 -200 2568 -200 2500 C-299 2500 -398 2500 -500 2500 C-500 2467 -500 2434 -500 2400 C-632 2400 -764 2400 -900 2400 C-900 2367 -900 2334 -900 2300 C-933 2300 -966 2300 -1000 2300 C-1000 2234 -1000 2168 -1000 2100 C-967 2100 -934 2100 -900 2100 C-900 2001 -900 1902 -900 1800 C-867 1800 -834 1800 -800 1800 C-800 1734 -800 1668 -800 1600 C-767 1600 -734 1600 -700 1600 C-700 1435 -700 1270 -700 1100 C-667 1100 -634 1100 -600 1100 C-600 968 -600 836 -600 700 C-567 700 -534 700 -500 700 C-500 667 -500 634 -500 600 C-467 600 -434 600 -400 600 C-400 567 -400 534 -400 500 C-367 500 -334 500 -300 500 C-300 467 -300 434 -300 400 C-234 400 -168 400 -100 400 C-100 301 -100 202 -100 100 C-67 100 -34 100 0 100 C0 67 0 34 0 0 Z " fill="#E9CE6F" transform="translate(1400,100)"/>
<path d="M0 0 C462 0 924 0 1400 0 C1400 33 1400 66 1400 100 C1301 100 1202 100 1100 100 C1100 166 1100 232 1100 300 C1067 300 1034 300 1000 300 C1000 333 1000 366 1000 400 C967 400 934 400 900 400 C900 433 900 466 900 500 C768 500 636 500 500 500 C500 467 500 434 500 400 C467 400 434 400 400 400 C400 367 400 334 400 300 C367 300 334 300 300 300 C300 234 300 168 300 100 C201 100 102 100 0 100 C0 67 0 34 0 0 Z " fill="#E9CE6F" transform="translate(900,2500)"/>
<path d="M0 0 C132 0 264 0 400 0 C400 33 400 66 400 100 C433 100 466 100 500 100 C500 199 500 298 500 400 C302 400 104 400 -100 400 C-100 301 -100 202 -100 100 C-67 100 -34 100 0 100 C0 67 0 34 0 0 Z " fill="#E9CE6F" transform="translate(1400,100)"/>
<path d="M0 0 C462 0 924 0 1400 0 C1400 33 1400 66 1400 100 C1301 100 1202 100 1100 100 C1100 166 1100 232 1100 300 C1067 300 1034 300 1000 300 C1000 234 1000 168 1000 100 C802 100 604 100 400 100 C400 166 400 232 400 300 C367 300 334 300 300 300 C300 234 300 168 300 100 C201 100 102 100 0 100 C0 67 0 34 0 0 Z " fill="#000000" transform="translate(900,2500)"/>
<path d="M0 0 C33 0 66 0 100 0 C100 66 100 132 100 200 C232 200 364 200 500 200 C500 134 500 68 500 0 C533 0 566 0 600 0 C600 99 600 198 600 300 C402 300 204 300 0 300 C0 201 0 102 0 0 Z " fill="#000000" transform="translate(1300,200)"/>
<path d="M0 0 C33 0 66 0 100 0 C100 165 100 330 100 500 C67 500 34 500 0 500 C0 335 0 170 0 0 Z " fill="#000000" transform="translate(2400,1200)"/>
<path d="M0 0 C33 0 66 0 100 0 C100 165 100 330 100 500 C67 500 34 500 0 500 C0 335 0 170 0 0 Z " fill="#000000" transform="translate(700,1200)"/>
<path d="M0 0 C132 0 264 0 400 0 C400 33 400 66 400 100 C268 100 136 100 0 100 C0 67 0 34 0 0 Z " fill="#000000" transform="translate(1400,2900)"/>
<path d="M0 0 C132 0 264 0 400 0 C400 33 400 66 400 100 C268 100 136 100 0 100 C0 67 0 34 0 0 Z " fill="#000000" transform="translate(2300,2400)"/>
<path d="M0 0 C132 0 264 0 400 0 C400 33 400 66 400 100 C268 100 136 100 0 100 C0 67 0 34 0 0 Z " fill="#000000" transform="translate(500,2400)"/>
<path d="M0 0 C33 0 66 0 100 0 C100 132 100 264 100 400 C67 400 34 400 0 400 C0 268 0 136 0 0 Z " fill="#000000" transform="translate(2300,800)"/>
<path d="M0 0 C33 0 66 0 100 0 C100 132 100 264 100 400 C67 400 34 400 0 400 C0 268 0 136 0 0 Z " fill="#000000" transform="translate(800,800)"/>
<path d="M0 0 C132 0 264 0 400 0 C400 33 400 66 400 100 C268 100 136 100 0 100 C0 67 0 34 0 0 Z " fill="#000000" transform="translate(1400,100)"/>
<path d="M0 0 C33 0 66 0 100 0 C100 99 100 198 100 300 C67 300 34 300 0 300 C0 201 0 102 0 0 Z " fill="#000000" transform="translate(2600,1900)"/>
<path d="M0 0 C33 0 66 0 100 0 C100 99 100 198 100 300 C67 300 34 300 0 300 C0 201 0 102 0 0 Z " fill="#000000" transform="translate(500,1900)"/>
<path d="M0 0 C33 0 66 0 100 0 C100 66 100 132 100 200 C67 200 34 200 0 200 C0 134 0 68 0 0 Z " fill="#000000" transform="translate(2700,2200)"/>
<path d="M0 0 C33 0 66 0 100 0 C100 66 100 132 100 200 C67 200 34 200 0 200 C0 134 0 68 0 0 Z " fill="#000000" transform="translate(400,2200)"/>
<path d="M0 0 C33 0 66 0 100 0 C100 66 100 132 100 200 C67 200 34 200 0 200 C0 134 0 68 0 0 Z " fill="#000000" transform="translate(2500,1700)"/>
<path d="M0 0 C33 0 66 0 100 0 C100 66 100 132 100 200 C67 200 34 200 0 200 C0 134 0 68 0 0 Z " fill="#000000" transform="translate(600,1700)"/>
<path d="M0 0 C66 0 132 0 200 0 C200 33 200 66 200 100 C134 100 68 100 0 100 C0 67 0 34 0 0 Z " fill="#000000" transform="translate(1900,500)"/>
<path d="M0 0 C66 0 132 0 200 0 C200 33 200 66 200 100 C134 100 68 100 0 100 C0 67 0 34 0 0 Z " fill="#000000" transform="translate(1100,500)"/>
<path d="M0 0 C33 0 66 0 100 0 C100 33 100 66 100 100 C67 100 34 100 0 100 C0 67 0 34 0 0 Z " fill="#000000" transform="translate(1800,2800)"/>
<path d="M0 0 C33 0 66 0 100 0 C100 33 100 66 100 100 C67 100 34 100 0 100 C0 67 0 34 0 0 Z " fill="#000000" transform="translate(1300,2800)"/>
<path d="M0 0 C33 0 66 0 100 0 C100 33 100 66 100 100 C67 100 34 100 0 100 C0 67 0 34 0 0 Z " fill="#000000" transform="translate(2200,700)"/>
<path d="M0 0 C33 0 66 0 100 0 C100 33 100 66 100 100 C67 100 34 100 0 100 C0 67 0 34 0 0 Z " fill="#000000" transform="translate(900,700)"/>
<path d="M0 0 C33 0 66 0 100 0 C100 33 100 66 100 100 C67 100 34 100 0 100 C0 67 0 34 0 0 Z " fill="#000000" transform="translate(2100,600)"/>
<path d="M0 0 C33 0 66 0 100 0 C100 33 100 66 100 100 C67 100 34 100 0 100 C0 67 0 34 0 0 Z " fill="#000000" transform="translate(1000,600)"/>
</svg>
