<?xml version="1.0" encoding="UTF-8"?>
<svg version="1.1" xmlns="http://www.w3.org/2000/svg" width="3200" height="3200">
<path d="M0 0 C132 0 264 0 400 0 C400 33 400 66 400 100 C433 100 466 100 500 100 C500 199 500 298 500 400 C566 400 632 400 700 400 C700 433 700 466 700 500 C766 500 832 500 900 500 C900 467 900 434 900 400 C933 400 966 400 1000 400 C1000 367 1000 334 1000 300 C1066 300 1132 300 1200 300 C1200 333 1200 366 1200 400 C1233 400 1266 400 1300 400 C1300 433 1300 466 1300 500 C1333 500 1366 500 1400 500 C1400 566 1400 632 1400 700 C1367 700 1334 700 1300 700 C1300 733 1300 766 1300 800 C1267 800 1234 800 1200 800 C1200 866 1200 932 1200 1000 C1233 1000 1266 1000 1300 1000 C1300 1066 1300 1132 1300 1200 C1399 1200 1498 1200 1600 1200 C1600 1233 1600 1266 1600 1300 C1633 1300 1666 1300 1700 1300 C1700 1432 1700 1564 1700 1700 C1667 1700 1634 1700 1600 1700 C1600 1733 1600 1766 1600 1800 C1501 1800 1402 1800 1300 1800 C1300 1866 1300 1932 1300 2000 C1267 2000 1234 2000 1200 2000 C1200 2066 1200 2132 1200 2200 C1233 2200 1266 2200 1300 2200 C1300 2233 1300 2266 1300 2300 C1333 2300 1366 2300 1400 2300 C1400 2366 1400 2432 1400 2500 C1367 2500 1334 2500 1300 2500 C1300 2533 1300 2566 1300 2600 C1267 2600 1234 2600 1200 2600 C1200 2633 1200 2666 1200 2700 C1134 2700 1068 2700 1000 2700 C1000 2667 1000 2634 1000 2600 C967 2600 934 2600 900 2600 C900 2567 900 2534 900 2500 C834 2500 768 2500 700 2500 C700 2533 700 2566 700 2600 C634 2600 568 2600 500 2600 C500 2699 500 2798 500 2900 C467 2900 434 2900 400 2900 C400 2933 400 2966 400 3000 C268 3000 136 3000 0 3000 C0 2967 0 2934 0 2900 C-33 2900 -66 2900 -100 2900 C-100 2801 -100 2702 -100 2600 C-166 2600 -232 2600 -300 2600 C-300 2567 -300 2534 -300 2500 C-366 2500 -432 2500 -500 2500 C-500 2533 -500 2566 -500 2600 C-533 2600 -566 2600 -600 2600 C-600 2633 -600 2666 -600 2700 C-666 2700 -732 2700 -800 2700 C-800 2667 -800 2634 -800 2600 C-833 2600 -866 2600 -900 2600 C-900 2567 -900 2534 -900 2500 C-933 2500 -966 2500 -1000 2500 C-1000 2434 -1000 2368 -1000 2300 C-967 2300 -934 2300 -900 2300 C-900 2267 -900 2234 -900 2200 C-867 2200 -834 2200 -800 2200 C-800 2134 -800 2068 -800 2000 C-833 2000 -866 2000 -900 2000 C-900 1934 -900 1868 -900 1800 C-999 1800 -1098 1800 -1200 1800 C-1200 1767 -1200 1734 -1200 1700 C-1233 1700 -1266 1700 -1300 1700 C-1300 1568 -1300 1436 -1300 1300 C-1267 1300 -1234 1300 -1200 1300 C-1200 1267 -1200 1234 -1200 1200 C-1101 1200 -1002 1200 -900 1200 C-900 1134 -900 1068 -900 1000 C-867 1000 -834 1000 -800 1000 C-800 934 -800 868 -800 800 C-833 800 -866 800 -900 800 C-900 767 -900 734 -900 700 C-933 700 -966 700 -1000 700 C-1000 634 -1000 568 -1000 500 C-967 500 -934 500 -900 500 C-900 467 -900 434 -900 400 C-867 400 -834 400 -800 400 C-800 367 -800 334 -800 300 C-734 300 -668 300 -600 300 C-600 333 -600 366 -600 400 C-567 400 -534 400 -500 400 C-500 433 -500 466 -500 500 C-434 500 -368 500 -300 500 C-300 467 -300 434 -300 400 C-234 400 -168 400 -100 400 C-100 301 -100 202 -100 100 C-67 100 -34 100 0 100 C0 67 0 34 0 0 Z M0 1100 C0 1133 0 1166 0 1200 C-33 1200 -66 1200 -100 1200 C-100 1233 -100 1266 -100 1300 C-133 1300 -166 1300 -200 1300 C-200 1432 -200 1564 -200 1700 C-167 1700 -134 1700 -100 1700 C-100 1733 -100 1766 -100 1800 C-67 1800 -34 1800 0 1800 C0 1833 0 1866 0 1900 C132 1900 264 1900 400 1900 C400 1867 400 1834 400 1800 C433 1800 466 1800 500 1800 C500 1767 500 1734 500 1700 C533 1700 566 1700 600 1700 C600 1568 600 1436 600 1300 C567 1300 534 1300 500 1300 C500 1267 500 1234 500 1200 C467 1200 434 1200 400 1200 C400 1167 400 1134 400 1100 C268 1100 136 1100 0 1100 Z " fill="#9BADB7" transform="translate(1400,100)"/>
<path d="M0 0 C132 0 264 0 400 0 C400 33 400 66 400 100 C466 100 532 100 600 100 C600 133 600 166 600 200 C666 200 732 200 800 200 C800 266 800 332 800 400 C833 400 866 400 900 400 C900 466 900 532 900 600 C933 600 966 600 1000 600 C1000 732 1000 864 1000 1000 C967 1000 934 1000 900 1000 C900 1066 900 1132 900 1200 C867 1200 834 1200 800 1200 C800 1266 800 1332 800 1400 C734 1400 668 1400 600 1400 C600 1433 600 1466 600 1500 C534 1500 468 1500 400 1500 C400 1533 400 1566 400 1600 C268 1600 136 1600 0 1600 C0 1567 0 1534 0 1500 C-66 1500 -132 1500 -200 1500 C-200 1467 -200 1434 -200 1400 C-266 1400 -332 1400 -400 1400 C-400 1334 -400 1268 -400 1200 C-433 1200 -466 1200 -500 1200 C-500 1134 -500 1068 -500 1000 C-533 1000 -566 1000 -600 1000 C-600 868 -600 736 -600 600 C-567 600 -534 600 -500 600 C-500 534 -500 468 -500 400 C-467 400 -434 400 -400 400 C-400 334 -400 268 -400 200 C-334 200 -268 200 -200 200 C-200 167 -200 134 -200 100 C-134 100 -68 100 0 100 C0 67 0 34 0 0 Z M0 400 C0 433 0 466 0 500 C-33 500 -66 500 -100 500 C-100 533 -100 566 -100 600 C-133 600 -166 600 -200 600 C-200 732 -200 864 -200 1000 C-167 1000 -134 1000 -100 1000 C-100 1033 -100 1066 -100 1100 C-67 1100 -34 1100 0 1100 C0 1133 0 1166 0 1200 C132 1200 264 1200 400 1200 C400 1167 400 1134 400 1100 C433 1100 466 1100 500 1100 C500 1067 500 1034 500 1000 C533 1000 566 1000 600 1000 C600 868 600 736 600 600 C567 600 534 600 500 600 C500 567 500 534 500 500 C467 500 434 500 400 500 C400 467 400 434 400 400 C268 400 136 400 0 400 Z " fill="#FFFFFF" transform="translate(1400,800)"/>
<path d="M0 0 C132 0 264 0 400 0 C400 33 400 66 400 100 C268 100 136 100 0 100 C0 67 0 34 0 0 Z " fill="#000000" transform="translate(1400,3000)"/>
<path d="M0 0 C132 0 264 0 400 0 C400 33 400 66 400 100 C268 100 136 100 0 100 C0 67 0 34 0 0 Z " fill="#696A6A" transform="translate(1400,2400)"/>
<path d="M0 0 C132 0 264 0 400 0 C400 33 400 66 400 100 C268 100 136 100 0 100 C0 67 0 34 0 0 Z " fill="#000000" transform="translate(1400,2000)"/>
<path d="M0 0 C33 0 66 0 100 0 C100 132 100 264 100 400 C67 400 34 400 0 400 C0 268 0 136 0 0 Z " fill="#000000" transform="translate(3000,1400)"/>
<path d="M0 0 C33 0 66 0 100 0 C100 132 100 264 100 400 C67 400 34 400 0 400 C0 268 0 136 0 0 Z " fill="#696A6A" transform="translate(2400,1400)"/>
<path d="M0 0 C33 0 66 0 100 0 C100 132 100 264 100 400 C67 400 34 400 0 400 C0 268 0 136 0 0 Z " fill="#000000" transform="translate(2000,1400)"/>
<path d="M0 0 C33 0 66 0 100 0 C100 132 100 264 100 400 C67 400 34 400 0 400 C0 268 0 136 0 0 Z " fill="#000000" transform="translate(1100,1400)"/>
<path d="M0 0 C33 0 66 0 100 0 C100 132 100 264 100 400 C67 400 34 400 0 400 C0 268 0 136 0 0 Z " fill="#696A6A" transform="translate(700,1400)"/>
<path d="M0 0 C33 0 66 0 100 0 C100 132 100 264 100 400 C67 400 34 400 0 400 C0 268 0 136 0 0 Z " fill="#000000" transform="translate(100,1400)"/>
<path d="M0 0 C132 0 264 0 400 0 C400 33 400 66 400 100 C268 100 136 100 0 100 C0 67 0 34 0 0 Z " fill="#000000" transform="translate(1400,1100)"/>
<path d="M0 0 C132 0 264 0 400 0 C400 33 400 66 400 100 C268 100 136 100 0 100 C0 67 0 34 0 0 Z " fill="#696A6A" transform="translate(1400,700)"/>
<path d="M0 0 C132 0 264 0 400 0 C400 33 400 66 400 100 C268 100 136 100 0 100 C0 67 0 34 0 0 Z " fill="#000000" transform="translate(1400,100)"/>
<path d="M0 0 C33 0 66 0 100 0 C100 99 100 198 100 300 C67 300 34 300 0 300 C0 201 0 102 0 0 Z " fill="#000000" transform="translate(1800,2700)"/>
<path d="M0 0 C33 0 66 0 100 0 C100 99 100 198 100 300 C67 300 34 300 0 300 C0 201 0 102 0 0 Z " fill="#000000" transform="translate(1300,2700)"/>
<path d="M0 0 C99 0 198 0 300 0 C300 33 300 66 300 100 C201 100 102 100 0 100 C0 67 0 34 0 0 Z " fill="#000000" transform="translate(2700,1800)"/>
<path d="M0 0 C99 0 198 0 300 0 C300 33 300 66 300 100 C201 100 102 100 0 100 C0 67 0 34 0 0 Z " fill="#000000" transform="translate(200,1800)"/>
<path d="M0 0 C99 0 198 0 300 0 C300 33 300 66 300 100 C201 100 102 100 0 100 C0 67 0 34 0 0 Z " fill="#000000" transform="translate(2700,1300)"/>
<path d="M0 0 C99 0 198 0 300 0 C300 33 300 66 300 100 C201 100 102 100 0 100 C0 67 0 34 0 0 Z " fill="#000000" transform="translate(200,1300)"/>
<path d="M0 0 C33 0 66 0 100 0 C100 99 100 198 100 300 C67 300 34 300 0 300 C0 201 0 102 0 0 Z " fill="#000000" transform="translate(1800,200)"/>
<path d="M0 0 C33 0 66 0 100 0 C100 99 100 198 100 300 C67 300 34 300 0 300 C0 201 0 102 0 0 Z " fill="#000000" transform="translate(1300,200)"/>
<path d="M0 0 C66 0 132 0 200 0 C200 33 200 66 200 100 C134 100 68 100 0 100 C0 67 0 34 0 0 Z " fill="#000000" transform="translate(2400,2700)"/>
<path d="M0 0 C66 0 132 0 200 0 C200 33 200 66 200 100 C134 100 68 100 0 100 C0 67 0 34 0 0 Z " fill="#000000" transform="translate(600,2700)"/>
<path d="M0 0 C66 0 132 0 200 0 C200 33 200 66 200 100 C134 100 68 100 0 100 C0 67 0 34 0 0 Z " fill="#000000" transform="translate(1900,2600)"/>
<path d="M0 0 C66 0 132 0 200 0 C200 33 200 66 200 100 C134 100 68 100 0 100 C0 67 0 34 0 0 Z " fill="#000000" transform="translate(1100,2600)"/>
<path d="M0 0 C66 0 132 0 200 0 C200 33 200 66 200 100 C134 100 68 100 0 100 C0 67 0 34 0 0 Z " fill="#000000" transform="translate(2100,2500)"/>
<path d="M0 0 C66 0 132 0 200 0 C200 33 200 66 200 100 C134 100 68 100 0 100 C0 67 0 34 0 0 Z " fill="#000000" transform="translate(900,2500)"/>
<path d="M0 0 C33 0 66 0 100 0 C100 66 100 132 100 200 C67 200 34 200 0 200 C0 134 0 68 0 0 Z " fill="#000000" transform="translate(2700,2400)"/>
<path d="M0 0 C33 0 66 0 100 0 C100 66 100 132 100 200 C67 200 34 200 0 200 C0 134 0 68 0 0 Z " fill="#000000" transform="translate(400,2400)"/>
<path d="M0 0 C66 0 132 0 200 0 C200 33 200 66 200 100 C134 100 68 100 0 100 C0 67 0 34 0 0 Z " fill="#696A6A" transform="translate(1800,2300)"/>
<path d="M0 0 C66 0 132 0 200 0 C200 33 200 66 200 100 C134 100 68 100 0 100 C0 67 0 34 0 0 Z " fill="#696A6A" transform="translate(1200,2300)"/>
<path d="M0 0 C66 0 132 0 200 0 C200 33 200 66 200 100 C134 100 68 100 0 100 C0 67 0 34 0 0 Z " fill="#696A6A" transform="translate(2000,2200)"/>
<path d="M0 0 C66 0 132 0 200 0 C200 33 200 66 200 100 C134 100 68 100 0 100 C0 67 0 34 0 0 Z " fill="#696A6A" transform="translate(1000,2200)"/>
<path d="M0 0 C33 0 66 0 100 0 C100 66 100 132 100 200 C67 200 34 200 0 200 C0 134 0 68 0 0 Z " fill="#000000" transform="translate(2500,2100)"/>
<path d="M0 0 C33 0 66 0 100 0 C100 66 100 132 100 200 C67 200 34 200 0 200 C0 134 0 68 0 0 Z " fill="#000000" transform="translate(600,2100)"/>
<path d="M0 0 C33 0 66 0 100 0 C100 66 100 132 100 200 C67 200 34 200 0 200 C0 134 0 68 0 0 Z " fill="#696A6A" transform="translate(2200,2000)"/>
<path d="M0 0 C33 0 66 0 100 0 C100 66 100 132 100 200 C67 200 34 200 0 200 C0 134 0 68 0 0 Z " fill="#696A6A" transform="translate(900,2000)"/>
<path d="M0 0 C33 0 66 0 100 0 C100 66 100 132 100 200 C67 200 34 200 0 200 C0 134 0 68 0 0 Z " fill="#000000" transform="translate(2600,1900)"/>
<path d="M0 0 C33 0 66 0 100 0 C100 66 100 132 100 200 C67 200 34 200 0 200 C0 134 0 68 0 0 Z " fill="#000000" transform="translate(500,1900)"/>
<path d="M0 0 C33 0 66 0 100 0 C100 66 100 132 100 200 C67 200 34 200 0 200 C0 134 0 68 0 0 Z " fill="#696A6A" transform="translate(2300,1800)"/>
<path d="M0 0 C33 0 66 0 100 0 C100 66 100 132 100 200 C67 200 34 200 0 200 C0 134 0 68 0 0 Z " fill="#696A6A" transform="translate(800,1800)"/>
<path d="M0 0 C33 0 66 0 100 0 C100 66 100 132 100 200 C67 200 34 200 0 200 C0 134 0 68 0 0 Z " fill="#696A6A" transform="translate(2300,1200)"/>
<path d="M0 0 C33 0 66 0 100 0 C100 66 100 132 100 200 C67 200 34 200 0 200 C0 134 0 68 0 0 Z " fill="#696A6A" transform="translate(800,1200)"/>
<path d="M0 0 C33 0 66 0 100 0 C100 66 100 132 100 200 C67 200 34 200 0 200 C0 134 0 68 0 0 Z " fill="#000000" transform="translate(2600,1100)"/>
<path d="M0 0 C33 0 66 0 100 0 C100 66 100 132 100 200 C67 200 34 200 0 200 C0 134 0 68 0 0 Z " fill="#000000" transform="translate(500,1100)"/>
<path d="M0 0 C33 0 66 0 100 0 C100 66 100 132 100 200 C67 200 34 200 0 200 C0 134 0 68 0 0 Z " fill="#696A6A" transform="translate(2200,1000)"/>
<path d="M0 0 C33 0 66 0 100 0 C100 66 100 132 100 200 C67 200 34 200 0 200 C0 134 0 68 0 0 Z " fill="#696A6A" transform="translate(900,1000)"/>
<path d="M0 0 C33 0 66 0 100 0 C100 66 100 132 100 200 C67 200 34 200 0 200 C0 134 0 68 0 0 Z " fill="#000000" transform="translate(2500,900)"/>
<path d="M0 0 C66 0 132 0 200 0 C200 33 200 66 200 100 C134 100 68 100 0 100 C0 67 0 34 0 0 Z " fill="#696A6A" transform="translate(2000,900)"/>
<path d="M0 0 C66 0 132 0 200 0 C200 33 200 66 200 100 C134 100 68 100 0 100 C0 67 0 34 0 0 Z " fill="#696A6A" transform="translate(1000,900)"/>
<path d="M0 0 C33 0 66 0 100 0 C100 66 100 132 100 200 C67 200 34 200 0 200 C0 134 0 68 0 0 Z " fill="#000000" transform="translate(600,900)"/>
<path d="M0 0 C66 0 132 0 200 0 C200 33 200 66 200 100 C134 100 68 100 0 100 C0 67 0 34 0 0 Z " fill="#696A6A" transform="translate(1800,800)"/>
<path d="M0 0 C66 0 132 0 200 0 C200 33 200 66 200 100 C134 100 68 100 0 100 C0 67 0 34 0 0 Z " fill="#696A6A" transform="translate(1200,800)"/>
<path d="M0 0 C33 0 66 0 100 0 C100 66 100 132 100 200 C67 200 34 200 0 200 C0 134 0 68 0 0 Z " fill="#000000" transform="translate(2700,600)"/>
<path d="M0 0 C66 0 132 0 200 0 C200 33 200 66 200 100 C134 100 68 100 0 100 C0 67 0 34 0 0 Z " fill="#000000" transform="translate(2100,600)"/>
<path d="M0 0 C66 0 132 0 200 0 C200 33 200 66 200 100 C134 100 68 100 0 100 C0 67 0 34 0 0 Z " fill="#000000" transform="translate(900,600)"/>
<path d="M0 0 C33 0 66 0 100 0 C100 66 100 132 100 200 C67 200 34 200 0 200 C0 134 0 68 0 0 Z " fill="#000000" transform="translate(400,600)"/>
<path d="M0 0 C66 0 132 0 200 0 C200 33 200 66 200 100 C134 100 68 100 0 100 C0 67 0 34 0 0 Z " fill="#000000" transform="translate(1900,500)"/>
<path d="M0 0 C66 0 132 0 200 0 C200 33 200 66 200 100 C134 100 68 100 0 100 C0 67 0 34 0 0 Z " fill="#000000" transform="translate(1100,500)"/>
<path d="M0 0 C66 0 132 0 200 0 C200 33 200 66 200 100 C134 100 68 100 0 100 C0 67 0 34 0 0 Z " fill="#000000" transform="translate(2400,400)"/>
<path d="M0 0 C66 0 132 0 200 0 C200 33 200 66 200 100 C134 100 68 100 0 100 C0 67 0 34 0 0 Z " fill="#000000" transform="translate(600,400)"/>
<path d="M0 0 C33 0 66 0 100 0 C100 33 100 66 100 100 C67 100 34 100 0 100 C0 67 0 34 0 0 Z " fill="#000000" transform="translate(2600,2600)"/>
<path d="M0 0 C33 0 66 0 100 0 C100 33 100 66 100 100 C67 100 34 100 0 100 C0 67 0 34 0 0 Z " fill="#000000" transform="translate(2300,2600)"/>
<path d="M0 0 C33 0 66 0 100 0 C100 33 100 66 100 100 C67 100 34 100 0 100 C0 67 0 34 0 0 Z " fill="#000000" transform="translate(800,2600)"/>
<path d="M0 0 C33 0 66 0 100 0 C100 33 100 66 100 100 C67 100 34 100 0 100 C0 67 0 34 0 0 Z " fill="#000000" transform="translate(500,2600)"/>
<path d="M0 0 C33 0 66 0 100 0 C100 33 100 66 100 100 C67 100 34 100 0 100 C0 67 0 34 0 0 Z " fill="#000000" transform="translate(2600,2300)"/>
<path d="M0 0 C33 0 66 0 100 0 C100 33 100 66 100 100 C67 100 34 100 0 100 C0 67 0 34 0 0 Z " fill="#000000" transform="translate(500,2300)"/>
<path d="M0 0 C33 0 66 0 100 0 C100 33 100 66 100 100 C67 100 34 100 0 100 C0 67 0 34 0 0 Z " fill="#000000" transform="translate(1800,1900)"/>
<path d="M0 0 C33 0 66 0 100 0 C100 33 100 66 100 100 C67 100 34 100 0 100 C0 67 0 34 0 0 Z " fill="#000000" transform="translate(1300,1900)"/>
<path d="M0 0 C33 0 66 0 100 0 C100 33 100 66 100 100 C67 100 34 100 0 100 C0 67 0 34 0 0 Z " fill="#000000" transform="translate(1900,1800)"/>
<path d="M0 0 C33 0 66 0 100 0 C100 33 100 66 100 100 C67 100 34 100 0 100 C0 67 0 34 0 0 Z " fill="#000000" transform="translate(1200,1800)"/>
<path d="M0 0 C33 0 66 0 100 0 C100 33 100 66 100 100 C67 100 34 100 0 100 C0 67 0 34 0 0 Z " fill="#000000" transform="translate(1900,1300)"/>
<path d="M0 0 C33 0 66 0 100 0 C100 33 100 66 100 100 C67 100 34 100 0 100 C0 67 0 34 0 0 Z " fill="#000000" transform="translate(1200,1300)"/>
<path d="M0 0 C33 0 66 0 100 0 C100 33 100 66 100 100 C67 100 34 100 0 100 C0 67 0 34 0 0 Z " fill="#000000" transform="translate(1800,1200)"/>
<path d="M0 0 C33 0 66 0 100 0 C100 33 100 66 100 100 C67 100 34 100 0 100 C0 67 0 34 0 0 Z " fill="#000000" transform="translate(1300,1200)"/>
<path d="M0 0 C33 0 66 0 100 0 C100 33 100 66 100 100 C67 100 34 100 0 100 C0 67 0 34 0 0 Z " fill="#000000" transform="translate(2600,800)"/>
<path d="M0 0 C33 0 66 0 100 0 C100 33 100 66 100 100 C67 100 34 100 0 100 C0 67 0 34 0 0 Z " fill="#000000" transform="translate(500,800)"/>
<path d="M0 0 C33 0 66 0 100 0 C100 33 100 66 100 100 C67 100 34 100 0 100 C0 67 0 34 0 0 Z " fill="#000000" transform="translate(2600,500)"/>
<path d="M0 0 C33 0 66 0 100 0 C100 33 100 66 100 100 C67 100 34 100 0 100 C0 67 0 34 0 0 Z " fill="#000000" transform="translate(2300,500)"/>
<path d="M0 0 C33 0 66 0 100 0 C100 33 100 66 100 100 C67 100 34 100 0 100 C0 67 0 34 0 0 Z " fill="#000000" transform="translate(800,500)"/>
<path d="M0 0 C33 0 66 0 100 0 C100 33 100 66 100 100 C67 100 34 100 0 100 C0 67 0 34 0 0 Z " fill="#000000" transform="translate(500,500)"/>
</svg>
