<svg xmlns="http://www.w3.org/2000/svg" viewBox="0 0 3200 3200">
<path d="M0 0 C33 0 66 0 100 0 C100 66 100 132 100 200 C166 200 232 200 300 200 C300 233 300 266 300 300 C333 300 366 300 400 300 C400 333 400 366 400 400 C433 400 466 400 500 400 C500 433 500 466 500 500 C533 500 566 500 600 500 C600 566 600 632 600 700 C633 700 666 700 700 700 C700 766 700 832 700 900 C667 900 634 900 600 900 C600 933 600 966 600 1000 C567 1000 534 1000 500 1000 C500 1066 500 1132 500 1200 C467 1200 434 1200 400 1200 C400 1233 400 1266 400 1300 C367 1300 334 1300 300 1300 C300 1333 300 1366 300 1400 C267 1400 234 1400 200 1400 C200 1466 200 1532 200 1600 C167 1600 134 1600 100 1600 C100 1633 100 1666 100 1700 C67 1700 34 1700 0 1700 C0 1766 0 1832 0 1900 C-66 1900 -132 1900 -200 1900 C-200 1801 -200 1702 -200 1600 C-233 1600 -266 1600 -300 1600 C-300 1567 -300 1534 -300 1500 C-333 1500 -366 1500 -400 1500 C-400 1467 -400 1434 -400 1400 C-433 1400 -466 1400 -500 1400 C-500 1367 -500 1334 -500 1300 C-533 1300 -566 1300 -600 1300 C-600 1267 -600 1234 -600 1200 C-633 1200 -666 1200 -700 1200 C-700 1068 -700 936 -700 800 C-667 800 -634 800 -600 800 C-600 767 -600 734 -600 700 C-567 700 -534 700 -500 700 C-500 667 -500 634 -500 600 C-467 600 -434 600 -400 600 C-400 567 -400 534 -400 500 C-367 500 -334 500 -300 500 C-300 434 -300 368 -300 300 C-267 300 -234 300 -200 300 C-200 234 -200 168 -200 100 C-134 100 -68 100 0 100 C0 67 0 34 0 0 Z " fill="#DB8246" transform="translate(1100,100)"/>
<path d="M0 0 C33 0 66 0 100 0 C100 33 100 66 100 100 C166 100 232 100 300 100 C300 133 300 166 300 200 C333 200 366 200 400 200 C400 233 400 266 400 300 C433 300 466 300 500 300 C500 333 500 366 500 400 C533 400 566 400 600 400 C600 433 600 466 600 500 C633 500 666 500 700 500 C700 632 700 764 700 900 C667 900 634 900 600 900 C600 966 600 1032 600 1100 C567 1100 534 1100 500 1100 C500 1133 500 1166 500 1200 C467 1200 434 1200 400 1200 C400 1233 400 1266 400 1300 C367 1300 334 1300 300 1300 C300 1366 300 1432 300 1500 C267 1500 234 1500 200 1500 C200 1533 200 1566 200 1600 C167 1600 134 1600 100 1600 C100 1666 100 1732 100 1800 C67 1800 34 1800 0 1800 C0 1767 0 1734 0 1700 C-33 1700 -66 1700 -100 1700 C-100 1634 -100 1568 -100 1500 C-133 1500 -166 1500 -200 1500 C-200 1467 -200 1434 -200 1400 C-233 1400 -266 1400 -300 1400 C-300 1367 -300 1334 -300 1300 C-333 1300 -366 1300 -400 1300 C-400 1234 -400 1168 -400 1100 C-433 1100 -466 1100 -500 1100 C-500 1067 -500 1034 -500 1000 C-533 1000 -566 1000 -600 1000 C-600 901 -600 802 -600 700 C-567 700 -534 700 -500 700 C-500 667 -500 634 -500 600 C-467 600 -434 600 -400 600 C-400 567 -400 534 -400 500 C-367 500 -334 500 -300 500 C-300 434 -300 368 -300 300 C-267 300 -234 300 -200 300 C-200 267 -200 234 -200 200 C-167 200 -134 200 -100 200 C-100 167 -100 134 -100 100 C-67 100 -34 100 0 100 C0 67 0 34 0 0 Z " fill="#DB8246" transform="translate(2200,1100)"/>
<path d="M0 0 C33 0 66 0 100 0 C100 66 100 132 100 200 C166 200 232 200 300 200 C300 233 300 266 300 300 C333 300 366 300 400 300 C400 333 400 366 400 400 C433 400 466 400 500 400 C500 433 500 466 500 500 C533 500 566 500 600 500 C600 566 600 632 600 700 C633 700 666 700 700 700 C700 766 700 832 700 900 C667 900 634 900 600 900 C600 933 600 966 600 1000 C567 1000 534 1000 500 1000 C500 1066 500 1132 500 1200 C467 1200 434 1200 400 1200 C400 1233 400 1266 400 1300 C367 1300 334 1300 300 1300 C300 1333 300 1366 300 1400 C267 1400 234 1400 200 1400 C200 1334 200 1268 200 1200 C233 1200 266 1200 300 1200 C300 1167 300 1134 300 1100 C333 1100 366 1100 400 1100 C400 1034 400 968 400 900 C433 900 466 900 500 900 C500 801 500 702 500 600 C467 600 434 600 400 600 C400 567 400 534 400 500 C367 500 334 500 300 500 C300 467 300 434 300 400 C267 400 234 400 200 400 C200 367 200 334 200 300 C134 300 68 300 0 300 C0 267 0 234 0 200 C-33 200 -66 200 -100 200 C-100 266 -100 332 -100 400 C-133 400 -166 400 -200 400 C-200 466 -200 532 -200 600 C-233 600 -266 600 -300 600 C-300 633 -300 666 -300 700 C-333 700 -366 700 -400 700 C-400 733 -400 766 -400 800 C-433 800 -466 800 -500 800 C-500 833 -500 866 -500 900 C-533 900 -566 900 -600 900 C-600 966 -600 1032 -600 1100 C-567 1100 -534 1100 -500 1100 C-500 1133 -500 1166 -500 1200 C-467 1200 -434 1200 -400 1200 C-400 1233 -400 1266 -400 1300 C-367 1300 -334 1300 -300 1300 C-300 1333 -300 1366 -300 1400 C-267 1400 -234 1400 -200 1400 C-200 1466 -200 1532 -200 1600 C-233 1600 -266 1600 -300 1600 C-300 1567 -300 1534 -300 1500 C-333 1500 -366 1500 -400 1500 C-400 1467 -400 1434 -400 1400 C-433 1400 -466 1400 -500 1400 C-500 1367 -500 1334 -500 1300 C-533 1300 -566 1300 -600 1300 C-600 1267 -600 1234 -600 1200 C-633 1200 -666 1200 -700 1200 C-700 1068 -700 936 -700 800 C-667 800 -634 800 -600 800 C-600 767 -600 734 -600 700 C-567 700 -534 700 -500 700 C-500 667 -500 634 -500 600 C-467 600 -434 600 -400 600 C-400 567 -400 534 -400 500 C-367 500 -334 500 -300 500 C-300 434 -300 368 -300 300 C-267 300 -234 300 -200 300 C-200 234 -200 168 -200 100 C-134 100 -68 100 0 100 C0 67 0 34 0 0 Z " fill="#000000" transform="translate(1100,100)"/>
<path d="M0 0 C33 0 66 0 100 0 C100 33 100 66 100 100 C166 100 232 100 300 100 C300 133 300 166 300 200 C333 200 366 200 400 200 C400 233 400 266 400 300 C334 300 268 300 200 300 C200 267 200 234 200 200 C134 200 68 200 0 200 C0 233 0 266 0 300 C-33 300 -66 300 -100 300 C-100 333 -100 366 -100 400 C-133 400 -166 400 -200 400 C-200 433 -200 466 -200 500 C-233 500 -266 500 -300 500 C-300 434 -300 368 -300 300 C-267 300 -234 300 -200 300 C-200 267 -200 234 -200 200 C-167 200 -134 200 -100 200 C-100 167 -100 134 -100 100 C-67 100 -34 100 0 100 C0 67 0 34 0 0 Z " fill="#000000" transform="translate(2200,1100)"/>
<path d="M0 0 C33 0 66 0 100 0 C100 66 100 132 100 200 C67 200 34 200 0 200 C0 233 0 266 0 300 C-33 300 -66 300 -100 300 C-100 366 -100 432 -100 500 C-166 500 -232 500 -300 500 C-300 401 -300 302 -300 200 C-234 200 -168 200 -100 200 C-100 167 -100 134 -100 100 C-67 100 -34 100 0 100 C0 67 0 34 0 0 Z " fill="#000000" transform="translate(1200,1500)"/>
<path d="M0 0 C33 0 66 0 100 0 C100 66 100 132 100 200 C67 200 34 200 0 200 C0 233 0 266 0 300 C-33 300 -66 300 -100 300 C-100 366 -100 432 -100 500 C-133 500 -166 500 -200 500 C-200 467 -200 434 -200 400 C-233 400 -266 400 -300 400 C-300 334 -300 268 -300 200 C-234 200 -168 200 -100 200 C-100 167 -100 134 -100 100 C-67 100 -34 100 0 100 C0 67 0 34 0 0 Z " fill="#000000" transform="translate(2400,2400)"/>
<path d="M0 0 C33 0 66 0 100 0 C100 66 100 132 100 200 C67 200 34 200 0 200 C0 233 0 266 0 300 C-33 300 -66 300 -100 300 C-100 333 -100 366 -100 400 C-67 400 -34 400 0 400 C0 466 0 532 0 600 C-33 600 -66 600 -100 600 C-100 567 -100 534 -100 500 C-133 500 -166 500 -200 500 C-200 401 -200 302 -200 200 C-167 200 -134 200 -100 200 C-100 167 -100 134 -100 100 C-67 100 -34 100 0 100 C0 67 0 34 0 0 Z " fill="#000000" transform="translate(1800,1600)"/>
<path d="M0 0 C33 0 66 0 100 0 C100 33 100 66 100 100 C133 100 166 100 200 100 C200 133 200 166 200 200 C233 200 266 200 300 200 C300 266 300 332 300 400 C267 400 234 400 200 400 C200 367 200 334 200 300 C167 300 134 300 100 300 C100 267 100 234 100 200 C67 200 34 200 0 200 C0 134 0 68 0 0 Z " fill="#000000" transform="translate(1800,2200)"/>
<path d="M0 0 C33 0 66 0 100 0 C100 66 100 132 100 200 C67 200 34 200 0 200 C0 233 0 266 0 300 C-33 300 -66 300 -100 300 C-100 333 -100 366 -100 400 C-133 400 -166 400 -200 400 C-200 334 -200 268 -200 200 C-167 200 -134 200 -100 200 C-100 167 -100 134 -100 100 C-67 100 -34 100 0 100 C0 67 0 34 0 0 Z " fill="#000000" transform="translate(2700,2000)"/>
<path d="M0 0 C33 0 66 0 100 0 C100 132 100 264 100 400 C67 400 34 400 0 400 C0 268 0 136 0 0 Z " fill="#000000" transform="translate(2800,1600)"/>
<path d="M0 0 C33 0 66 0 100 0 C100 33 100 66 100 100 C67 100 34 100 0 100 C0 67 0 34 0 0 Z " fill="#000000" transform="translate(2700,1500)"/>
<path d="M0 0 C33 0 66 0 100 0 C100 33 100 66 100 100 C67 100 34 100 0 100 C0 67 0 34 0 0 Z " fill="#000000" transform="translate(2600,1400)"/>
</svg>
