<svg version="1.1" xmlns="http://www.w3.org/2000/svg" viewBox="0 0 3200 3200">
<path d="M0 0 C297 0 594 0 900 0 C900 33 900 66 900 100 C966 100 1032 100 1100 100 C1100 133 1100 166 1100 200 C1166 200 1232 200 1300 200 C1300 233 1300 266 1300 300 C1366 300 1432 300 1500 300 C1500 333 1500 366 1500 400 C1533 400 1566 400 1600 400 C1600 466 1600 532 1600 600 C1633 600 1666 600 1700 600 C1700 666 1700 732 1700 800 C1733 800 1766 800 1800 800 C1800 965 1800 1130 1800 1300 C1767 1300 1734 1300 1700 1300 C1700 1333 1700 1366 1700 1400 C1667 1400 1634 1400 1600 1400 C1600 1433 1600 1466 1600 1500 C1567 1500 1534 1500 1500 1500 C1500 1533 1500 1566 1500 1600 C1434 1600 1368 1600 1300 1600 C1300 1633 1300 1666 1300 1700 C1201 1700 1102 1700 1000 1700 C1000 1733 1000 1766 1000 1800 C637 1800 274 1800 -100 1800 C-100 1767 -100 1734 -100 1700 C-232 1700 -364 1700 -500 1700 C-500 1667 -500 1634 -500 1600 C-566 1600 -632 1600 -700 1600 C-700 1567 -700 1534 -700 1500 C-733 1500 -766 1500 -800 1500 C-800 1467 -800 1434 -800 1400 C-833 1400 -866 1400 -900 1400 C-900 1334 -900 1268 -900 1200 C-933 1200 -966 1200 -1000 1200 C-1000 1035 -1000 870 -1000 700 C-967 700 -934 700 -900 700 C-900 667 -900 634 -900 600 C-867 600 -834 600 -800 600 C-800 567 -800 534 -800 500 C-767 500 -734 500 -700 500 C-700 467 -700 434 -700 400 C-667 400 -634 400 -600 400 C-600 367 -600 334 -600 300 C-534 300 -468 300 -400 300 C-400 267 -400 234 -400 200 C-334 200 -268 200 -200 200 C-200 167 -200 134 -200 100 C-134 100 -68 100 0 100 C0 67 0 34 0 0 Z " fill="#FFFFFF" transform="translate(1200,700)"/>
<path d="M0 0 C264 0 528 0 800 0 C800 33 800 66 800 100 C866 100 932 100 1000 100 C1000 232 1000 364 1000 500 C1033 500 1066 500 1100 500 C1100 632 1100 764 1100 900 C1067 900 1034 900 1000 900 C1000 966 1000 1032 1000 1100 C967 1100 934 1100 900 1100 C900 1133 900 1166 900 1200 C834 1200 768 1200 700 1200 C700 1233 700 1266 700 1300 C502 1300 304 1300 100 1300 C100 1267 100 1234 100 1200 C34 1200 -32 1200 -100 1200 C-100 1167 -100 1134 -100 1100 C-133 1100 -166 1100 -200 1100 C-200 836 -200 572 -200 300 C-167 300 -134 300 -100 300 C-100 234 -100 168 -100 100 C-67 100 -34 100 0 100 C0 67 0 34 0 0 Z " fill="#323C39" transform="translate(1200,1000)"/>
<path d="M0 0 C264 0 528 0 800 0 C800 33 800 66 800 100 C866 100 932 100 1000 100 C1000 232 1000 364 1000 500 C1033 500 1066 500 1100 500 C1100 632 1100 764 1100 900 C1067 900 1034 900 1000 900 C1000 966 1000 1032 1000 1100 C967 1100 934 1100 900 1100 C900 1133 900 1166 900 1200 C834 1200 768 1200 700 1200 C700 1233 700 1266 700 1300 C502 1300 304 1300 100 1300 C100 1267 100 1234 100 1200 C34 1200 -32 1200 -100 1200 C-100 1167 -100 1134 -100 1100 C-133 1100 -166 1100 -200 1100 C-200 836 -200 572 -200 300 C-167 300 -134 300 -100 300 C-100 234 -100 168 -100 100 C-67 100 -34 100 0 100 C0 67 0 34 0 0 Z M100 100 C100 133 100 166 100 200 C67 200 34 200 0 200 C0 266 0 332 0 400 C-33 400 -66 400 -100 400 C-100 598 -100 796 -100 1000 C-67 1000 -34 1000 0 1000 C0 1033 0 1066 0 1100 C66 1100 132 1100 200 1100 C200 1133 200 1166 200 1200 C332 1200 464 1200 600 1200 C600 1167 600 1134 600 1100 C666 1100 732 1100 800 1100 C800 1067 800 1034 800 1000 C833 1000 866 1000 900 1000 C900 934 900 868 900 800 C933 800 966 800 1000 800 C1000 734 1000 668 1000 600 C967 600 934 600 900 600 C900 468 900 336 900 200 C834 200 768 200 700 200 C700 167 700 134 700 100 C502 100 304 100 100 100 Z " fill="#000000" transform="translate(1200,1000)"/>
<path d="M0 0 C297 0 594 0 900 0 C900 33 900 66 900 100 C966 100 1032 100 1100 100 C1100 133 1100 166 1100 200 C1001 200 902 200 800 200 C800 167 800 134 800 100 C569 100 338 100 100 100 C100 133 100 166 100 200 C34 200 -32 200 -100 200 C-100 233 -100 266 -100 300 C-166 300 -232 300 -300 300 C-300 333 -300 366 -300 400 C-366 400 -432 400 -500 400 C-500 433 -500 466 -500 500 C-533 500 -566 500 -600 500 C-600 533 -600 566 -600 600 C-633 600 -666 600 -700 600 C-700 633 -700 666 -700 700 C-733 700 -766 700 -800 700 C-800 733 -800 766 -800 800 C-833 800 -866 800 -900 800 C-900 932 -900 1064 -900 1200 C-933 1200 -966 1200 -1000 1200 C-1000 1035 -1000 870 -1000 700 C-967 700 -934 700 -900 700 C-900 667 -900 634 -900 600 C-867 600 -834 600 -800 600 C-800 567 -800 534 -800 500 C-767 500 -734 500 -700 500 C-700 467 -700 434 -700 400 C-667 400 -634 400 -600 400 C-600 367 -600 334 -600 300 C-534 300 -468 300 -400 300 C-400 267 -400 234 -400 200 C-334 200 -268 200 -200 200 C-200 167 -200 134 -200 100 C-134 100 -68 100 0 100 C0 67 0 34 0 0 Z " fill="#000000" transform="translate(1200,700)"/>
<path d="M0 0 C66 0 132 0 200 0 C200 33 200 66 200 100 C266 100 332 100 400 100 C400 133 400 166 400 200 C433 200 466 200 500 200 C500 266 500 332 500 400 C533 400 566 400 600 400 C600 466 600 532 600 600 C633 600 666 600 700 600 C700 765 700 930 700 1100 C667 1100 634 1100 600 1100 C600 1133 600 1166 600 1200 C567 1200 534 1200 500 1200 C500 1233 500 1266 500 1300 C467 1300 434 1300 400 1300 C400 1333 400 1366 400 1400 C334 1400 268 1400 200 1400 C200 1433 200 1466 200 1500 C101 1500 2 1500 -100 1500 C-100 1467 -100 1434 -100 1400 C-34 1400 32 1400 100 1400 C100 1367 100 1334 100 1300 C166 1300 232 1300 300 1300 C300 1267 300 1234 300 1200 C333 1200 366 1200 400 1200 C400 1167 400 1134 400 1100 C433 1100 466 1100 500 1100 C500 1067 500 1034 500 1000 C533 1000 566 1000 600 1000 C600 901 600 802 600 700 C567 700 534 700 500 700 C500 634 500 568 500 500 C467 500 434 500 400 500 C400 434 400 368 400 300 C367 300 334 300 300 300 C300 267 300 234 300 200 C234 200 168 200 100 200 C100 167 100 134 100 100 C67 100 34 100 0 100 C0 67 0 34 0 0 Z " fill="#000000" transform="translate(2300,900)"/>
<path d="M0 0 C33 0 66 0 100 0 C100 33 100 66 100 100 C133 100 166 100 200 100 C200 133 200 166 200 200 C233 200 266 200 300 200 C300 233 300 266 300 300 C366 300 432 300 500 300 C500 333 500 366 500 400 C632 400 764 400 900 400 C900 433 900 466 900 500 C1230 500 1560 500 1900 500 C1900 533 1900 566 1900 600 C1537 600 1174 600 800 600 C800 567 800 534 800 500 C668 500 536 500 400 500 C400 467 400 434 400 400 C334 400 268 400 200 400 C200 367 200 334 200 300 C167 300 134 300 100 300 C100 267 100 234 100 200 C67 200 34 200 0 200 C0 134 0 68 0 0 Z " fill="#000000" transform="translate(300,1900)"/>
</svg>
