<svg version="1.1" xmlns="http://www.w3.org/2000/svg" viewBox="0 0 4000 500">
<path d="M0 0 C1320 0 2640 0 4000 0 C4000 165 4000 330 4000 500 C2680 500 1360 500 0 500 C0 335 0 170 0 0 Z " fill="#FFFFFF" transform="translate(0,0)"/>
<path d="M0 0 C3.3 0 6.6 0 10 0 C10 3.3 10 6.6 10 10 C19.9 10 29.8 10 40 10 C40 13.3 40 16.6 40 20 C33.4 20 26.8 20 20 20 C20 33.2 20 46.4 20 60 C29.9 60 39.8 60 50 60 C50 63.3 50 66.6 50 70 C53.3 70 56.6 70 60 70 C60 76.6 60 83.2 60 90 C63.3 90 66.6 90 70 90 C70 109.8 70 129.6 70 150 C66.7 150 63.4 150 60 150 C60 133.5 60 117 60 100 C56.7 100 53.4 100 50 100 C50 93.4 50 86.8 50 80 C46.7 80 43.4 80 40 80 C40 76.7 40 73.4 40 70 C33.4 70 26.8 70 20 70 C20 83.2 20 96.4 20 110 C16.7 110 13.4 110 10 110 C10 113.3 10 116.6 10 120 C-13.1 120 -36.2 120 -60 120 C-60 103.5 -60 87 -60 70 C-56.7 70 -53.4 70 -50 70 C-50 66.7 -50 63.4 -50 60 C-30.2 60 -10.4 60 10 60 C10 46.8 10 33.6 10 20 C-19.7 20 -49.4 20 -80 20 C-80 16.7 -80 13.4 -80 10 C-53.6 10 -27.2 10 0 10 C0 6.7 0 3.4 0 0 Z " fill="#000000" transform="translate(3060,210)"/>
<path d="M0 0 C46.2 0 92.4 0 140 0 C140 13.2 140 26.4 140 40 C136.7 40 133.4 40 130 40 C130 43.3 130 46.6 130 50 C126.7 50 123.4 50 120 50 C120 43.4 120 36.8 120 30 C123.3 30 126.6 30 130 30 C130 23.4 130 16.8 130 10 C113.5 10 97 10 80 10 C80 13.3 80 16.6 80 20 C83.3 20 86.6 20 90 20 C90 26.6 90 33.2 90 40 C86.7 40 83.4 40 80 40 C80 46.6 80 53.2 80 60 C86.6 60 93.2 60 100 60 C100 56.7 100 53.4 100 50 C103.3 50 106.6 50 110 50 C110 56.6 110 63.2 110 70 C100.1 70 90.2 70 80 70 C80 89.8 80 109.6 80 130 C86.6 130 93.2 130 100 130 C100 133.3 100 136.6 100 140 C103.3 140 106.6 140 110 140 C110 143.3 110 146.6 110 150 C103.4 150 96.8 150 90 150 C90 146.7 90 143.4 90 140 C83.4 140 76.8 140 70 140 C70 136.7 70 133.4 70 130 C60.1 130 50.2 130 40 130 C40 126.7 40 123.4 40 120 C49.9 120 59.8 120 70 120 C70 103.5 70 87 70 70 C60.1 70 50.2 70 40 70 C40 73.3 40 76.6 40 80 C26.8 80 13.6 80 0 80 C0 83.3 0 86.6 0 90 C-6.6 90 -13.2 90 -20 90 C-20 86.7 -20 83.4 -20 80 C-16.7 80 -13.4 80 -10 80 C-10 76.7 -10 73.4 -10 70 C3.2 70 16.4 70 30 70 C30 66.7 30 63.4 30 60 C43.2 60 56.4 60 70 60 C70 50.1 70 40.2 70 30 C66.7 30 63.4 30 60 30 C60 23.4 60 16.8 60 10 C40.2 10 20.4 10 0 10 C0 6.7 0 3.4 0 0 Z " fill="#000000" transform="translate(2790,190)"/>
<path d="M0 0 C6.6 0 13.2 0 20 0 C20 3.3 20 6.6 20 10 C16.7 10 13.4 10 10 10 C10 19.9 10 29.8 10 40 C29.8 40 49.6 40 70 40 C70 26.8 70 13.6 70 0 C73.3 0 76.6 0 80 0 C80 3.3 80 6.6 80 10 C83.3 10 86.6 10 90 10 C90 13.3 90 16.6 90 20 C86.7 20 83.4 20 80 20 C80 26.6 80 33.2 80 40 C93.2 40 106.4 40 120 40 C120 43.3 120 46.6 120 50 C110.1 50 100.2 50 90 50 C90 59.9 90 69.8 90 80 C93.3 80 96.6 80 100 80 C100 76.7 100 73.4 100 70 C109.9 70 119.8 70 130 70 C130 73.3 130 76.6 130 80 C123.4 80 116.8 80 110 80 C110 83.3 110 86.6 110 90 C90.2 90 70.4 90 50 90 C50 93.3 50 96.6 50 100 C26.9 100 3.8 100 -20 100 C-20 96.7 -20 93.4 -20 90 C-16.7 90 -13.4 90 -10 90 C-10 86.7 -10 83.4 -10 80 C19.7 80 49.4 80 80 80 C80 73.4 80 66.8 80 60 C76.7 60 73.4 60 70 60 C70 56.7 70 53.4 70 50 C50.2 50 30.4 50 10 50 C10 56.6 10 63.2 10 70 C6.7 70 3.4 70 0 70 C0 46.9 0 23.8 0 0 Z " fill="#000000" transform="translate(1890,140)"/>
<path d="M0 0 C29.7 0 59.4 0 90 0 C90 3.3 90 6.6 90 10 C93.3 10 96.6 10 100 10 C100 16.6 100 23.2 100 30 C103.3 30 106.6 30 110 30 C110 36.6 110 43.2 110 50 C80.3 50 50.6 50 20 50 C20 46.7 20 43.4 20 40 C16.7 40 13.4 40 10 40 C10 33.4 10 26.8 10 20 C6.7 20 3.4 20 0 20 C0 13.4 0 6.8 0 0 Z " fill="#FFFFFF" transform="translate(1930,300)"/>
<path d="M0 0 C3.3 0 6.6 0 10 0 C10 3.3 10 6.6 10 10 C43 10 76 10 110 10 C110 13.3 110 16.6 110 20 C113.3 20 116.6 20 120 20 C120 26.6 120 33.2 120 40 C123.3 40 126.6 40 130 40 C130 49.9 130 59.8 130 70 C143.2 70 156.4 70 170 70 C170 73.3 170 76.6 170 80 C156.8 80 143.6 80 130 80 C130 83.3 130 86.6 130 90 C123.4 90 116.8 90 110 90 C110 86.7 110 83.4 110 80 C83.6 80 57.2 80 30 80 C30 83.3 30 86.6 30 90 C26.7 90 23.4 90 20 90 C20 86.7 20 83.4 20 80 C16.7 80 13.4 80 10 80 C10 70.1 10 60.2 10 50 C6.7 50 3.4 50 0 50 C0 33.5 0 17 0 0 Z M10 20 C10 26.6 10 33.2 10 40 C13.3 40 16.6 40 20 40 C20 46.6 20 53.2 20 60 C23.3 60 26.6 60 30 60 C30 63.3 30 66.6 30 70 C59.7 70 89.4 70 120 70 C120 63.4 120 56.8 120 50 C116.7 50 113.4 50 110 50 C110 43.4 110 36.8 110 30 C106.7 30 103.4 30 100 30 C100 26.7 100 23.4 100 20 C70.3 20 40.6 20 10 20 Z " fill="#000000" transform="translate(1920,280)"/>
<path d="M0 0 C3.3 0 6.6 0 10 0 C10 13.2 10 26.4 10 40 C16.6 40 23.2 40 30 40 C30 53.2 30 66.4 30 80 C26.7 80 23.4 80 20 80 C20 86.6 20 93.2 20 100 C26.6 100 33.2 100 40 100 C40 103.3 40 106.6 40 110 C33.4 110 26.8 110 20 110 C20 113.3 20 116.6 20 120 C16.7 120 13.4 120 10 120 C10 126.6 10 133.2 10 140 C0.1 140 -9.8 140 -20 140 C-20 143.3 -20 146.6 -20 150 C-23.3 150 -26.6 150 -30 150 C-30 143.4 -30 136.8 -30 130 C-23.4 130 -16.8 130 -10 130 C-10 123.4 -10 116.8 -10 110 C-6.7 110 -3.4 110 0 110 C0 90.2 0 70.4 0 50 C-9.9 50 -19.8 50 -30 50 C-30 46.7 -30 43.4 -30 40 C-20.1 40 -10.2 40 0 40 C0 26.8 0 13.6 0 0 Z " fill="#000000" transform="translate(2550,180)"/>
<path d="M0 0 C3.3 0 6.6 0 10 0 C10 13.2 10 26.4 10 40 C23.2 40 36.4 40 50 40 C50 36.7 50 33.4 50 30 C56.6 30 63.2 30 70 30 C70 33.3 70 36.6 70 40 C66.7 40 63.4 40 60 40 C60 43.3 60 46.6 60 50 C53.4 50 46.8 50 40 50 C40 56.6 40 63.2 40 70 C36.7 70 33.4 70 30 70 C30 79.9 30 89.8 30 100 C33.3 100 36.6 100 40 100 C40 103.3 40 106.6 40 110 C46.6 110 53.2 110 60 110 C60 106.7 60 103.4 60 100 C66.6 100 73.2 100 80 100 C80 96.7 80 93.4 80 90 C86.6 90 93.2 90 100 90 C100 93.3 100 96.6 100 100 C96.7 100 93.4 100 90 100 C90 103.3 90 106.6 90 110 C83.4 110 76.8 110 70 110 C70 113.3 70 116.6 70 120 C56.8 120 43.6 120 30 120 C30 116.7 30 113.4 30 110 C26.7 110 23.4 110 20 110 C20 93.5 20 77 20 60 C23.3 60 26.6 60 30 60 C30 56.7 30 53.4 30 50 C20.1 50 10.2 50 0 50 C0 33.5 0 17 0 0 Z " fill="#000000" transform="translate(2160,250)"/>
<path d="M0 0 C19.8 0 39.6 0 60 0 C60 3.3 60 6.6 60 10 C66.6 10 73.2 10 80 10 C80 23.2 80 36.4 80 50 C76.7 50 73.4 50 70 50 C70 59.9 70 69.8 70 80 C66.7 80 63.4 80 60 80 C60 83.3 60 86.6 60 90 C56.7 90 53.4 90 50 90 C50 83.4 50 76.8 50 70 C53.3 70 56.6 70 60 70 C60 60.1 60 50.2 60 40 C63.3 40 66.6 40 70 40 C70 33.4 70 26.8 70 20 C63.4 20 56.8 20 50 20 C50 16.7 50 13.4 50 10 C36.8 10 23.6 10 10 10 C10 13.3 10 16.6 10 20 C3.4 20 -3.2 20 -10 20 C-10 23.3 -10 26.6 -10 30 C-16.6 30 -23.2 30 -30 30 C-30 26.7 -30 23.4 -30 20 C-39.9 20 -49.8 20 -60 20 C-60 16.7 -60 13.4 -60 10 C-40.2 10 -20.4 10 0 10 C0 6.7 0 3.4 0 0 Z " fill="#000000" transform="translate(920,150)"/>
<path d="M0 0 C16.5 0 33 0 50 0 C50 9.9 50 19.8 50 30 C46.7 30 43.4 30 40 30 C40 33.3 40 36.6 40 40 C23.5 40 7 40 -10 40 C-10 30.1 -10 20.2 -10 10 C-6.7 10 -3.4 10 0 10 C0 6.7 0 3.4 0 0 Z " fill="#FFFFFF" transform="translate(3020,280)"/>
<path d="M0 0 C9.9 0 19.8 0 30 0 C30 6.6 30 13.2 30 20 C33.3 20 36.6 20 40 20 C40 23.3 40 26.6 40 30 C33.4 30 26.8 30 20 30 C20 26.7 20 23.4 20 20 C13.4 20 6.8 20 0 20 C0 26.6 0 33.2 0 40 C-3.3 40 -6.6 40 -10 40 C-10 33.4 -10 26.8 -10 20 C-23.2 20 -36.4 20 -50 20 C-50 23.3 -50 26.6 -50 30 C-56.6 30 -63.2 30 -70 30 C-70 23.4 -70 16.8 -70 10 C-46.9 10 -23.8 10 0 10 C0 6.7 0 3.4 0 0 Z " fill="#000000" transform="translate(2180,210)"/>
<path d="M0 0 C3.3 0 6.6 0 10 0 C10 9.9 10 19.8 10 30 C6.7 30 3.4 30 0 30 C0 33.3 0 36.6 0 40 C6.6 40 13.2 40 20 40 C20 36.7 20 33.4 20 30 C39.8 30 59.6 30 80 30 C80 33.3 80 36.6 80 40 C83.3 40 86.6 40 90 40 C90 43.3 90 46.6 90 50 C83.4 50 76.8 50 70 50 C70 46.7 70 43.4 70 40 C56.8 40 43.6 40 30 40 C30 43.3 30 46.6 30 50 C13.5 50 -3 50 -20 50 C-20 46.7 -20 43.4 -20 40 C-16.7 40 -13.4 40 -10 40 C-10 33.4 -10 26.8 -10 20 C-6.7 20 -3.4 20 0 20 C0 13.4 0 6.8 0 0 Z " fill="#000000" transform="translate(1690,300)"/>
<path d="M0 0 C6.6 0 13.2 0 20 0 C20 26.4 20 52.8 20 80 C23.3 80 26.6 80 30 80 C30 83.3 30 86.6 30 90 C36.6 90 43.2 90 50 90 C50 93.3 50 96.6 50 100 C53.3 100 56.6 100 60 100 C60 96.7 60 93.4 60 90 C63.3 90 66.6 90 70 90 C70 96.6 70 103.2 70 110 C60.1 110 50.2 110 40 110 C40 106.7 40 103.4 40 100 C33.4 100 26.8 100 20 100 C20 96.7 20 93.4 20 90 C16.7 90 13.4 90 10 90 C10 63.6 10 37.2 10 10 C6.7 10 3.4 10 0 10 C0 6.7 0 3.4 0 0 Z " fill="#000000" transform="translate(2650,230)"/>
<path d="M0 0 C26.4 0 52.8 0 80 0 C80 3.3 80 6.6 80 10 C83.3 10 86.6 10 90 10 C90 13.3 90 16.6 90 20 C93.3 20 96.6 20 100 20 C100 33.2 100 46.4 100 60 C96.7 60 93.4 60 90 60 C90 50.1 90 40.2 90 30 C86.7 30 83.4 30 80 30 C80 26.7 80 23.4 80 20 C76.7 20 73.4 20 70 20 C70 16.7 70 13.4 70 10 C50.2 10 30.4 10 10 10 C10 13.3 10 16.6 10 20 C3.4 20 -3.2 20 -10 20 C-10 16.7 -10 13.4 -10 10 C-6.7 10 -3.4 10 0 10 C0 6.7 0 3.4 0 0 Z " fill="#000000" transform="translate(1110,190)"/>
<path d="M0 0 C3.3 0 6.6 0 10 0 C10 6.6 10 13.2 10 20 C36.4 20 62.8 20 90 20 C90 16.7 90 13.4 90 10 C99.9 10 109.8 10 120 10 C120 13.3 120 16.6 120 20 C113.4 20 106.8 20 100 20 C100 23.3 100 26.6 100 30 C67 30 34 30 0 30 C0 20.1 0 10.2 0 0 Z " fill="#000000" transform="translate(1120,330)"/>
<path d="M0 0 C3.3 0 6.6 0 10 0 C10 19.8 10 39.6 10 60 C13.3 60 16.6 60 20 60 C20 63.3 20 66.6 20 70 C16.7 70 13.4 70 10 70 C10 76.6 10 83.2 10 90 C3.4 90 -3.2 90 -10 90 C-10 76.8 -10 63.6 -10 50 C-6.7 50 -3.4 50 0 50 C0 33.5 0 17 0 0 Z " fill="#000000" transform="translate(1630,300)"/>
<path d="M0 0 C6.6 0 13.2 0 20 0 C20 3.3 20 6.6 20 10 C26.6 10 33.2 10 40 10 C40 13.3 40 16.6 40 20 C26.8 20 13.6 20 0 20 C0 36.5 0 53 0 70 C-3.3 70 -6.6 70 -10 70 C-10 56.8 -10 43.6 -10 30 C-16.6 30 -23.2 30 -30 30 C-30 26.7 -30 23.4 -30 20 C-23.4 20 -16.8 20 -10 20 C-10 16.7 -10 13.4 -10 10 C-6.7 10 -3.4 10 0 10 C0 6.7 0 3.4 0 0 Z " fill="#000000" transform="translate(1660,180)"/>
<path d="M0 0 C6.6 0 13.2 0 20 0 C20 3.3 20 6.6 20 10 C16.7 10 13.4 10 10 10 C10 13.3 10 16.6 10 20 C-19.7 20 -49.4 20 -80 20 C-80 16.7 -80 13.4 -80 10 C-53.6 10 -27.2 10 0 10 C0 6.7 0 3.4 0 0 Z " fill="#000000" transform="translate(990,350)"/>
<path d="M0 0 C3.3 0 6.6 0 10 0 C10 3.3 10 6.6 10 10 C16.6 10 23.2 10 30 10 C30 13.3 30 16.6 30 20 C46.5 20 63 20 80 20 C80 23.3 80 26.6 80 30 C60.2 30 40.4 30 20 30 C20 26.7 20 23.4 20 20 C13.4 20 6.8 20 0 20 C0 13.4 0 6.8 0 0 Z " fill="#000000" transform="translate(1450,300)"/>
<path d="M0 0 C3.3 0 6.6 0 10 0 C10 19.8 10 39.6 10 60 C3.4 60 -3.2 60 -10 60 C-10 53.4 -10 46.8 -10 40 C-6.7 40 -3.4 40 0 40 C0 26.8 0 13.6 0 0 Z " fill="#000000" transform="translate(2360,310)"/>
<path d="M0 0 C3.3 0 6.6 0 10 0 C10 3.3 10 6.6 10 10 C13.3 10 16.6 10 20 10 C20 13.3 20 16.6 20 20 C23.3 20 26.6 20 30 20 C30 23.3 30 26.6 30 30 C33.3 30 36.6 30 40 30 C40 33.3 40 36.6 40 40 C33.4 40 26.8 40 20 40 C20 36.7 20 33.4 20 30 C16.7 30 13.4 30 10 30 C10 26.7 10 23.4 10 20 C6.7 20 3.4 20 0 20 C0 13.4 0 6.8 0 0 Z " fill="#000000" transform="translate(1810,330)"/>
<path d="M0 0 C6.6 0 13.2 0 20 0 C20 3.3 20 6.6 20 10 C16.7 10 13.4 10 10 10 C10 13.3 10 16.6 10 20 C19.9 20 29.8 20 40 20 C40 23.3 40 26.6 40 30 C26.8 30 13.6 30 0 30 C0 20.1 0 10.2 0 0 Z " fill="#000000" transform="translate(2810,320)"/>
<path d="M0 0 C3.3 0 6.6 0 10 0 C10 23.1 10 46.2 10 70 C6.7 70 3.4 70 0 70 C0 46.9 0 23.8 0 0 Z " fill="#000000" transform="translate(2560,320)"/>
<path d="M0 0 C6.6 0 13.2 0 20 0 C20 3.3 20 6.6 20 10 C16.7 10 13.4 10 10 10 C10 26.5 10 43 10 60 C6.7 60 3.4 60 0 60 C0 40.2 0 20.4 0 0 Z " fill="#000000" transform="translate(1710,220)"/>
<path d="M0 0 C13.2 0 26.4 0 40 0 C40 9.9 40 19.8 40 30 C36.7 30 33.4 30 30 30 C30 23.4 30 16.8 30 10 C20.1 10 10.2 10 0 10 C0 6.7 0 3.4 0 0 Z " fill="#000000" transform="translate(1440,250)"/>
<path d="M0 0 C3.3 0 6.6 0 10 0 C10 3.3 10 6.6 10 10 C13.3 10 16.6 10 20 10 C20 13.3 20 16.6 20 20 C16.7 20 13.4 20 10 20 C10 29.9 10 39.8 10 50 C6.7 50 3.4 50 0 50 C0 33.5 0 17 0 0 Z " fill="#000000" transform="translate(1340,190)"/>
<path d="M0 0 C9.9 0 19.8 0 30 0 C30 3.3 30 6.6 30 10 C33.3 10 36.6 10 40 10 C40 16.6 40 23.2 40 30 C36.7 30 33.4 30 30 30 C30 26.7 30 23.4 30 20 C26.7 20 23.4 20 20 20 C20 16.7 20 13.4 20 10 C13.4 10 6.8 10 0 10 C0 6.7 0 3.4 0 0 Z " fill="#000000" transform="translate(1750,170)"/>
<path d="M0 0 C3.3 0 6.6 0 10 0 C10 9.9 10 19.8 10 30 C3.4 30 -3.2 30 -10 30 C-10 23.4 -10 16.8 -10 10 C-6.7 10 -3.4 10 0 10 C0 6.7 0 3.4 0 0 Z " fill="#000000" transform="translate(3110,360)"/>
<path d="M0 0 C3.3 0 6.6 0 10 0 C10 3.3 10 6.6 10 10 C13.3 10 16.6 10 20 10 C20 6.7 20 3.4 20 0 C23.3 0 26.6 0 30 0 C30 6.6 30 13.2 30 20 C20.1 20 10.2 20 0 20 C0 13.4 0 6.8 0 0 Z " fill="#000000" transform="translate(1370,330)"/>
<path d="M0 0 C3.3 0 6.6 0 10 0 C10 3.3 10 6.6 10 10 C13.3 10 16.6 10 20 10 C20 13.3 20 16.6 20 20 C23.3 20 26.6 20 30 20 C30 23.3 30 26.6 30 30 C23.4 30 16.8 30 10 30 C10 26.7 10 23.4 10 20 C6.7 20 3.4 20 0 20 C0 13.4 0 6.8 0 0 Z " fill="#000000" transform="translate(870,320)"/>
<path d="M0 0 C3.3 0 6.6 0 10 0 C10 16.5 10 33 10 50 C6.7 50 3.4 50 0 50 C0 33.5 0 17 0 0 Z " fill="#000000" transform="translate(1360,280)"/>
<path d="M0 0 C3.3 0 6.6 0 10 0 C10 16.5 10 33 10 50 C6.7 50 3.4 50 0 50 C0 33.5 0 17 0 0 Z " fill="#000000" transform="translate(1640,250)"/>
<path d="M0 0 C6.6 0 13.2 0 20 0 C20 3.3 20 6.6 20 10 C16.7 10 13.4 10 10 10 C10 13.3 10 16.6 10 20 C6.7 20 3.4 20 0 20 C0 23.3 0 26.6 0 30 C-3.3 30 -6.6 30 -10 30 C-10 23.4 -10 16.8 -10 10 C-6.7 10 -3.4 10 0 10 C0 6.7 0 3.4 0 0 Z " fill="#000000" transform="translate(2390,240)"/>
<path d="M0 0 C16.5 0 33 0 50 0 C50 3.3 50 6.6 50 10 C33.5 10 17 10 0 10 C0 6.7 0 3.4 0 0 Z " fill="#000000" transform="translate(1700,180)"/>
<path d="M0 0 C3.3 0 6.6 0 10 0 C10 13.2 10 26.4 10 40 C6.7 40 3.4 40 0 40 C0 26.8 0 13.6 0 0 Z " fill="#000000" transform="translate(2370,270)"/>
<path d="M0 0 C13.2 0 26.4 0 40 0 C40 3.3 40 6.6 40 10 C26.8 10 13.6 10 0 10 C0 6.7 0 3.4 0 0 Z " fill="#000000" transform="translate(1400,260)"/>
<path d="M0 0 C3.3 0 6.6 0 10 0 C10 13.2 10 26.4 10 40 C6.7 40 3.4 40 0 40 C0 26.8 0 13.6 0 0 Z " fill="#000000" transform="translate(1350,240)"/>
<path d="M0 0 C3.3 0 6.6 0 10 0 C10 6.6 10 13.2 10 20 C3.4 20 -3.2 20 -10 20 C-10 16.7 -10 13.4 -10 10 C-6.7 10 -3.4 10 0 10 C0 6.7 0 3.4 0 0 Z " fill="#000000" transform="translate(1040,320)"/>
<path d="M0 0 C9.9 0 19.8 0 30 0 C30 3.3 30 6.6 30 10 C20.1 10 10.2 10 0 10 C0 6.7 0 3.4 0 0 Z " fill="#000000" transform="translate(1530,310)"/>
<path d="M0 0 C3.3 0 6.6 0 10 0 C10 3.3 10 6.6 10 10 C13.3 10 16.6 10 20 10 C20 13.3 20 16.6 20 20 C13.4 20 6.8 20 0 20 C0 13.4 0 6.8 0 0 Z " fill="#000000" transform="translate(2410,270)"/>
<path d="M0 0 C6.6 0 13.2 0 20 0 C20 3.3 20 6.6 20 10 C16.7 10 13.4 10 10 10 C10 13.3 10 16.6 10 20 C6.7 20 3.4 20 0 20 C0 13.4 0 6.8 0 0 Z " fill="#000000" transform="translate(2590,260)"/>
<path d="M0 0 C3.3 0 6.6 0 10 0 C10 9.9 10 19.8 10 30 C6.7 30 3.4 30 0 30 C0 20.1 0 10.2 0 0 Z " fill="#FFFFFF" transform="translate(2560,230)"/>
<path d="M0 0 C6.6 0 13.2 0 20 0 C20 6.6 20 13.2 20 20 C16.7 20 13.4 20 10 20 C10 16.7 10 13.4 10 10 C6.7 10 3.4 10 0 10 C0 6.7 0 3.4 0 0 Z " fill="#000000" transform="translate(3040,190)"/>
<path d="M0 0 C6.6 0 13.2 0 20 0 C20 6.6 20 13.2 20 20 C16.7 20 13.4 20 10 20 C10 16.7 10 13.4 10 10 C6.7 10 3.4 10 0 10 C0 6.7 0 3.4 0 0 Z " fill="#000000" transform="translate(1670,120)"/>
<path d="M0 0 C6.6 0 13.2 0 20 0 C20 3.3 20 6.6 20 10 C13.4 10 6.8 10 0 10 C0 6.7 0 3.4 0 0 Z " fill="#000000" transform="translate(2470,340)"/>
<path d="M0 0 C6.6 0 13.2 0 20 0 C20 3.3 20 6.6 20 10 C13.4 10 6.8 10 0 10 C0 6.7 0 3.4 0 0 Z " fill="#000000" transform="translate(1010,340)"/>
<path d="M0 0 C6.6 0 13.2 0 20 0 C20 3.3 20 6.6 20 10 C13.4 10 6.8 10 0 10 C0 6.7 0 3.4 0 0 Z " fill="#000000" transform="translate(2260,330)"/>
<path d="M0 0 C6.6 0 13.2 0 20 0 C20 3.3 20 6.6 20 10 C13.4 10 6.8 10 0 10 C0 6.7 0 3.4 0 0 Z " fill="#000000" transform="translate(1240,330)"/>
<path d="M0 0 C3.3 0 6.6 0 10 0 C10 6.6 10 13.2 10 20 C6.7 20 3.4 20 0 20 C0 13.4 0 6.8 0 0 Z " fill="#000000" transform="translate(2430,290)"/>
<path d="M0 0 C3.3 0 6.6 0 10 0 C10 6.6 10 13.2 10 20 C6.7 20 3.4 20 0 20 C0 13.4 0 6.8 0 0 Z " fill="#000000" transform="translate(1700,280)"/>
<path d="M0 0 C6.6 0 13.2 0 20 0 C20 3.3 20 6.6 20 10 C13.4 10 6.8 10 0 10 C0 6.7 0 3.4 0 0 Z " fill="#000000" transform="translate(2610,250)"/>
<path d="M0 0 C6.6 0 13.2 0 20 0 C20 3.3 20 6.6 20 10 C13.4 10 6.8 10 0 10 C0 6.7 0 3.4 0 0 Z " fill="#000000" transform="translate(2630,240)"/>
<path d="M0 0 C3.3 0 6.6 0 10 0 C10 6.6 10 13.2 10 20 C6.7 20 3.4 20 0 20 C0 13.4 0 6.8 0 0 Z " fill="#000000" transform="translate(2370,210)"/>
<path d="M0 0 C3.3 0 6.6 0 10 0 C10 6.6 10 13.2 10 20 C6.7 20 3.4 20 0 20 C0 13.4 0 6.8 0 0 Z " fill="#000000" transform="translate(2360,190)"/>
<path d="M0 0 C3.3 0 6.6 0 10 0 C10 6.6 10 13.2 10 20 C6.7 20 3.4 20 0 20 C0 13.4 0 6.8 0 0 Z " fill="#000000" transform="translate(2350,170)"/>
<path d="M0 0 C3.3 0 6.6 0 10 0 C10 6.6 10 13.2 10 20 C6.7 20 3.4 20 0 20 C0 13.4 0 6.8 0 0 Z " fill="#000000" transform="translate(1690,140)"/>
<path d="M0 0 C3.3 0 6.6 0 10 0 C10 3.3 10 6.6 10 10 C6.7 10 3.4 10 0 10 C0 6.7 0 3.4 0 0 Z " fill="#000000" transform="translate(900,350)"/>
<path d="M0 0 C3.3 0 6.6 0 10 0 C10 3.3 10 6.6 10 10 C6.7 10 3.4 10 0 10 C0 6.7 0 3.4 0 0 Z " fill="#000000" transform="translate(2900,340)"/>
<path d="M0 0 C3.3 0 6.6 0 10 0 C10 3.3 10 6.6 10 10 C6.7 10 3.4 10 0 10 C0 6.7 0 3.4 0 0 Z " fill="#000000" transform="translate(2850,330)"/>
<path d="M0 0 C3.3 0 6.6 0 10 0 C10 3.3 10 6.6 10 10 C6.7 10 3.4 10 0 10 C0 6.7 0 3.4 0 0 Z " fill="#000000" transform="translate(2460,330)"/>
<path d="M0 0 C3.3 0 6.6 0 10 0 C10 3.3 10 6.6 10 10 C6.7 10 3.4 10 0 10 C0 6.7 0 3.4 0 0 Z " fill="#000000" transform="translate(2450,320)"/>
<path d="M0 0 C3.3 0 6.6 0 10 0 C10 3.3 10 6.6 10 10 C6.7 10 3.4 10 0 10 C0 6.7 0 3.4 0 0 Z " fill="#000000" transform="translate(1800,320)"/>
<path d="M0 0 C3.3 0 6.6 0 10 0 C10 3.3 10 6.6 10 10 C6.7 10 3.4 10 0 10 C0 6.7 0 3.4 0 0 Z " fill="#000000" transform="translate(2440,310)"/>
<path d="M0 0 C3.3 0 6.6 0 10 0 C10 3.3 10 6.6 10 10 C6.7 10 3.4 10 0 10 C0 6.7 0 3.4 0 0 Z " fill="#000000" transform="translate(1790,310)"/>
<path d="M0 0 C3.3 0 6.6 0 10 0 C10 3.3 10 6.6 10 10 C6.7 10 3.4 10 0 10 C0 6.7 0 3.4 0 0 Z " fill="#000000" transform="translate(1780,300)"/>
<path d="M0 0 C3.3 0 6.6 0 10 0 C10 3.3 10 6.6 10 10 C6.7 10 3.4 10 0 10 C0 6.7 0 3.4 0 0 Z " fill="#000000" transform="translate(1770,290)"/>
<path d="M0 0 C3.3 0 6.6 0 10 0 C10 3.3 10 6.6 10 10 C6.7 10 3.4 10 0 10 C0 6.7 0 3.4 0 0 Z " fill="#000000" transform="translate(2400,260)"/>
<path d="M0 0 C3.3 0 6.6 0 10 0 C10 3.3 10 6.6 10 10 C6.7 10 3.4 10 0 10 C0 6.7 0 3.4 0 0 Z " fill="#000000" transform="translate(3100,230)"/>
<path d="M0 0 C3.3 0 6.6 0 10 0 C10 3.3 10 6.6 10 10 C6.7 10 3.4 10 0 10 C0 6.7 0 3.4 0 0 Z " fill="#000000" transform="translate(2880,230)"/>
<path d="M0 0 C3.3 0 6.6 0 10 0 C10 3.3 10 6.6 10 10 C6.7 10 3.4 10 0 10 C0 6.7 0 3.4 0 0 Z " fill="#000000" transform="translate(2510,230)"/>
<path d="M0 0 C3.3 0 6.6 0 10 0 C10 3.3 10 6.6 10 10 C6.7 10 3.4 10 0 10 C0 6.7 0 3.4 0 0 Z " fill="#000000" transform="translate(2380,230)"/>
<path d="M0 0 C3.3 0 6.6 0 10 0 C10 3.3 10 6.6 10 10 C6.7 10 3.4 10 0 10 C0 6.7 0 3.4 0 0 Z " fill="#000000" transform="translate(2020,220)"/>
<path d="M0 0 C3.3 0 6.6 0 10 0 C10 3.3 10 6.6 10 10 C6.7 10 3.4 10 0 10 C0 6.7 0 3.4 0 0 Z " fill="#000000" transform="translate(1700,160)"/>
</svg>
