<svg version="1.1" xmlns="http://www.w3.org/2000/svg" viewBox="0 0 1330 500">
<path d="M0 0 C438.9 0 877.8 0 1330 0 C1330 165 1330 330 1330 500 C891.1 500 452.2 500 0 500 C0 335 0 170 0 0 Z " fill="#FFFFFF" transform="translate(0,0)"/>
<path d="M0 0 C26.4 0 52.8 0 80 0 C80 3.3 80 6.6 80 10 C83.3 10 86.6 10 90 10 C90 26.5 90 43 90 60 C86.7 60 83.4 60 80 60 C80 66.6 80 73.2 80 80 C76.7 80 73.4 80 70 80 C70 76.7 70 73.4 70 70 C66.7 70 63.4 70 60 70 C60 79.9 60 89.8 60 100 C63.3 100 66.6 100 70 100 C70 103.3 70 106.6 70 110 C66.7 110 63.4 110 60 110 C60 116.6 60 123.2 60 130 C63.3 130 66.6 130 70 130 C70 133.3 70 136.6 70 140 C73.3 140 76.6 140 80 140 C80 143.3 80 146.6 80 150 C86.6 150 93.2 150 100 150 C100 153.3 100 156.6 100 160 C109.9 160 119.8 160 130 160 C130 163.3 130 166.6 130 170 C116.8 170 103.6 170 90 170 C90 166.7 90 163.4 90 160 C83.4 160 76.8 160 70 160 C70 179.8 70 199.6 70 220 C66.7 220 63.4 220 60 220 C60 196.9 60 173.8 60 150 C53.4 150 46.8 150 40 150 C40 156.6 40 163.2 40 170 C36.7 170 33.4 170 30 170 C30 173.3 30 176.6 30 180 C26.7 180 23.4 180 20 180 C20 173.4 20 166.8 20 160 C23.3 160 26.6 160 30 160 C30 153.4 30 146.8 30 140 C33.3 140 36.6 140 40 140 C40 136.7 40 133.4 40 130 C43.3 130 46.6 130 50 130 C50 126.7 50 123.4 50 120 C40.1 120 30.2 120 20 120 C20 116.7 20 113.4 20 110 C26.6 110 33.2 110 40 110 C40 106.7 40 103.4 40 100 C43.3 100 46.6 100 50 100 C50 93.4 50 86.8 50 80 C33.5 80 17 80 0 80 C0 66.8 0 53.6 0 40 C13.2 40 26.4 40 40 40 C40 36.7 40 33.4 40 30 C43.3 30 46.6 30 50 30 C50 33.3 50 36.6 50 40 C59.9 40 69.8 40 80 40 C80 33.4 80 26.8 80 20 C76.7 20 73.4 20 70 20 C70 16.7 70 13.4 70 10 C46.9 10 23.8 10 0 10 C0 6.7 0 3.4 0 0 Z " fill="#000000" transform="translate(250,140)"/>
<path d="M0 0 C26.4 0 52.8 0 80 0 C80 6.6 80 13.2 80 20 C76.7 20 73.4 20 70 20 C70 16.7 70 13.4 70 10 C60.1 10 50.2 10 40 10 C40 13.3 40 16.6 40 20 C43.3 20 46.6 20 50 20 C50 26.6 50 33.2 50 40 C53.3 40 56.6 40 60 40 C60 53.2 60 66.4 60 80 C66.6 80 73.2 80 80 80 C80 83.3 80 86.6 80 90 C76.7 90 73.4 90 70 90 C70 93.3 70 96.6 70 100 C66.7 100 63.4 100 60 100 C60 103.3 60 106.6 60 110 C66.6 110 73.2 110 80 110 C80 113.3 80 116.6 80 120 C50.3 120 20.6 120 -10 120 C-10 116.7 -10 113.4 -10 110 C-0.1 110 9.8 110 20 110 C20 106.7 20 103.4 20 100 C16.7 100 13.4 100 10 100 C10 90.1 10 80.2 10 70 C13.3 70 16.6 70 20 70 C20 76.6 20 83.2 20 90 C23.3 90 26.6 90 30 90 C30 93.3 30 96.6 30 100 C36.6 100 43.2 100 50 100 C50 86.8 50 73.6 50 60 C46.7 60 43.4 60 40 60 C40 56.7 40 53.4 40 50 C36.7 50 33.4 50 30 50 C30 53.3 30 56.6 30 60 C13.5 60 -3 60 -20 60 C-20 56.7 -20 53.4 -20 50 C-6.8 50 6.4 50 20 50 C20 46.7 20 43.4 20 40 C26.6 40 33.2 40 40 40 C40 36.7 40 33.4 40 30 C36.7 30 33.4 30 30 30 C30 23.4 30 16.8 30 10 C20.1 10 10.2 10 0 10 C0 6.7 0 3.4 0 0 Z " fill="#000000" transform="translate(440,220)"/>
<path d="M0 0 C16.5 0 33 0 50 0 C50 19.8 50 39.6 50 60 C30.2 60 10.4 60 -10 60 C-10 63.3 -10 66.6 -10 70 C-13.3 70 -16.6 70 -20 70 C-20 66.7 -20 63.4 -20 60 C-23.3 60 -26.6 60 -30 60 C-30 43.5 -30 27 -30 10 C-20.1 10 -10.2 10 0 10 C0 6.7 0 3.4 0 0 Z " fill="#000000" transform="translate(180,280)"/>
<path d="M0 0 C26.4 0 52.8 0 80 0 C80 3.3 80 6.6 80 10 C83.3 10 86.6 10 90 10 C90 16.6 90 23.2 90 30 C80.1 30 70.2 30 60 30 C60 26.7 60 23.4 60 20 C56.7 20 53.4 20 50 20 C50 23.3 50 26.6 50 30 C13.7 30 -22.6 30 -60 30 C-60 33.3 -60 36.6 -60 40 C-69.9 40 -79.8 40 -90 40 C-90 33.4 -90 26.8 -90 20 C-86.7 20 -83.4 20 -80 20 C-80 23.3 -80 26.6 -80 30 C-76.7 30 -73.4 30 -70 30 C-70 26.7 -70 23.4 -70 20 C-46.9 20 -23.8 20 0 20 C0 13.4 0 6.8 0 0 Z " fill="#FFFFFF" transform="translate(240,150)"/>
<path d="M0 0 C6.6 0 13.2 0 20 0 C20 16.5 20 33 20 50 C39.8 50 59.6 50 80 50 C80 53.3 80 56.6 80 60 C60.2 60 40.4 60 20 60 C20 76.5 20 93 20 110 C16.7 110 13.4 110 10 110 C10 93.5 10 77 10 60 C-6.5 60 -23 60 -40 60 C-40 56.7 -40 53.4 -40 50 C-23.5 50 -7 50 10 50 C10 40.1 10 30.2 10 20 C6.7 20 3.4 20 0 20 C0 13.4 0 6.8 0 0 Z " fill="#000000" transform="translate(870,150)"/>
<path d="M0 0 C13.2 0 26.4 0 40 0 C40 13.2 40 26.4 40 40 C23.5 40 7 40 -10 40 C-10 36.7 -10 33.4 -10 30 C-13.3 30 -16.6 30 -20 30 C-20 26.7 -20 23.4 -20 20 C-16.7 20 -13.4 20 -10 20 C-10 16.7 -10 13.4 -10 10 C-6.7 10 -3.4 10 0 10 C0 6.7 0 3.4 0 0 Z " fill="#FFFFFF" transform="translate(180,290)"/>
<path d="M0 0 C3.3 0 6.6 0 10 0 C10 3.3 10 6.6 10 10 C13.3 10 16.6 10 20 10 C20 13.3 20 16.6 20 20 C23.3 20 26.6 20 30 20 C30 23.3 30 26.6 30 30 C23.4 30 16.8 30 10 30 C10 26.7 10 23.4 10 20 C6.7 20 3.4 20 0 20 C0 23.3 0 26.6 0 30 C-3.3 30 -6.6 30 -10 30 C-10 33.3 -10 36.6 -10 40 C-13.3 40 -16.6 40 -20 40 C-20 46.6 -20 53.2 -20 60 C-23.3 60 -26.6 60 -30 60 C-30 63.3 -30 66.6 -30 70 C-33.3 70 -36.6 70 -40 70 C-40 73.3 -40 76.6 -40 80 C-43.3 80 -46.6 80 -50 80 C-50 73.4 -50 66.8 -50 60 C-46.7 60 -43.4 60 -40 60 C-40 56.7 -40 53.4 -40 50 C-36.7 50 -33.4 50 -30 50 C-30 43.4 -30 36.8 -30 30 C-26.7 30 -23.4 30 -20 30 C-20 26.7 -20 23.4 -20 20 C-16.7 20 -13.4 20 -10 20 C-10 16.7 -10 13.4 -10 10 C-6.7 10 -3.4 10 0 10 C0 6.7 0 3.4 0 0 Z " fill="#000000" transform="translate(470,130)"/>
<path d="M0 0 C3.3 0 6.6 0 10 0 C10 9.9 10 19.8 10 30 C-13.1 30 -36.2 30 -60 30 C-60 33.3 -60 36.6 -60 40 C-69.9 40 -79.8 40 -90 40 C-90 33.4 -90 26.8 -90 20 C-86.7 20 -83.4 20 -80 20 C-80 23.3 -80 26.6 -80 30 C-76.7 30 -73.4 30 -70 30 C-70 26.7 -70 23.4 -70 20 C-46.9 20 -23.8 20 0 20 C0 13.4 0 6.8 0 0 Z " fill="#000000" transform="translate(240,150)"/>
<path d="M0 0 C16.5 0 33 0 50 0 C50 3.3 50 6.6 50 10 C36.8 10 23.6 10 10 10 C10 13.3 10 16.6 10 20 C-9.8 20 -29.6 20 -50 20 C-50 16.7 -50 13.4 -50 10 C-33.5 10 -17 10 0 10 C0 6.7 0 3.4 0 0 Z " fill="#000000" transform="translate(570,310)"/>
<path d="M0 0 C3.3 0 6.6 0 10 0 C10 16.5 10 33 10 50 C6.7 50 3.4 50 0 50 C0 56.6 0 63.2 0 70 C-6.6 70 -13.2 70 -20 70 C-20 63.4 -20 56.8 -20 50 C-16.7 50 -13.4 50 -10 50 C-10 46.7 -10 43.4 -10 40 C-6.7 40 -3.4 40 0 40 C0 26.8 0 13.6 0 0 Z " fill="#000000" transform="translate(870,260)"/>
<path d="M0 0 C29.7 0 59.4 0 90 0 C90 3.3 90 6.6 90 10 C60.3 10 30.6 10 0 10 C0 6.7 0 3.4 0 0 Z " fill="#000000" transform="translate(1030,240)"/>
<path d="M0 0 C16.5 0 33 0 50 0 C50 3.3 50 6.6 50 10 C36.8 10 23.6 10 10 10 C10 13.3 10 16.6 10 20 C-3.2 20 -16.4 20 -30 20 C-30 16.7 -30 13.4 -30 10 C-20.1 10 -10.2 10 0 10 C0 6.7 0 3.4 0 0 Z " fill="#000000" transform="translate(180,240)"/>
<path d="M0 0 C16.5 0 33 0 50 0 C50 3.3 50 6.6 50 10 C36.8 10 23.6 10 10 10 C10 13.3 10 16.6 10 20 C0.1 20 -9.8 20 -20 20 C-20 16.7 -20 13.4 -20 10 C-13.4 10 -6.8 10 0 10 C0 6.7 0 3.4 0 0 Z " fill="#000000" transform="translate(170,210)"/>
<path d="M0 0 C3.3 0 6.6 0 10 0 C10 9.9 10 19.8 10 30 C13.3 30 16.6 30 20 30 C20 36.6 20 43.2 20 50 C23.3 50 26.6 50 30 50 C30 53.3 30 56.6 30 60 C23.4 60 16.8 60 10 60 C10 53.4 10 46.8 10 40 C6.7 40 3.4 40 0 40 C0 26.8 0 13.6 0 0 Z " fill="#000000" transform="translate(780,150)"/>
<path d="M0 0 C6.6 0 13.2 0 20 0 C20 3.3 20 6.6 20 10 C23.3 10 26.6 10 30 10 C30 13.3 30 16.6 30 20 C36.6 20 43.2 20 50 20 C50 23.3 50 26.6 50 30 C40.1 30 30.2 30 20 30 C20 26.7 20 23.4 20 20 C16.7 20 13.4 20 10 20 C10 16.7 10 13.4 10 10 C6.7 10 3.4 10 0 10 C0 6.7 0 3.4 0 0 Z " fill="#000000" transform="translate(510,170)"/>
<path d="M0 0 C19.8 0 39.6 0 60 0 C60 3.3 60 6.6 60 10 C40.2 10 20.4 10 0 10 C0 6.7 0 3.4 0 0 Z " fill="#000000" transform="translate(970,250)"/>
<path d="M0 0 C3.3 0 6.6 0 10 0 C10 3.3 10 6.6 10 10 C13.3 10 16.6 10 20 10 C20 13.3 20 16.6 20 20 C23.3 20 26.6 20 30 20 C30 26.6 30 33.2 30 40 C26.7 40 23.4 40 20 40 C20 36.7 20 33.4 20 30 C16.7 30 13.4 30 10 30 C10 26.7 10 23.4 10 20 C6.7 20 3.4 20 0 20 C0 13.4 0 6.8 0 0 Z " fill="#000000" transform="translate(730,240)"/>
<path d="M0 0 C6.6 0 13.2 0 20 0 C20 3.3 20 6.6 20 10 C26.6 10 33.2 10 40 10 C40 16.6 40 23.2 40 30 C36.7 30 33.4 30 30 30 C30 26.7 30 23.4 30 20 C23.4 20 16.8 20 10 20 C10 16.7 10 13.4 10 10 C6.7 10 3.4 10 0 10 C0 6.7 0 3.4 0 0 Z " fill="#000000" transform="translate(560,200)"/>
<path d="M0 0 C9.9 0 19.8 0 30 0 C30 6.6 30 13.2 30 20 C20.1 20 10.2 20 0 20 C0 13.4 0 6.8 0 0 Z " fill="#FFFFFF" transform="translate(260,190)"/>
<path d="M0 0 C3.3 0 6.6 0 10 0 C10 6.6 10 13.2 10 20 C13.3 20 16.6 20 20 20 C20 23.3 20 26.6 20 30 C16.7 30 13.4 30 10 30 C10 33.3 10 36.6 10 40 C6.7 40 3.4 40 0 40 C0 26.8 0 13.6 0 0 Z " fill="#000000" transform="translate(660,290)"/>
<path d="M0 0 C3.3 0 6.6 0 10 0 C10 16.5 10 33 10 50 C6.7 50 3.4 50 0 50 C0 33.5 0 17 0 0 Z " fill="#000000" transform="translate(670,240)"/>
<path d="M0 0 C6.6 0 13.2 0 20 0 C20 3.3 20 6.6 20 10 C16.7 10 13.4 10 10 10 C10 13.3 10 16.6 10 20 C0.1 20 -9.8 20 -20 20 C-20 16.7 -20 13.4 -20 10 C-13.4 10 -6.8 10 0 10 C0 6.7 0 3.4 0 0 Z " fill="#000000" transform="translate(340,220)"/>
<path d="M0 0 C3.3 0 6.6 0 10 0 C10 13.2 10 26.4 10 40 C3.4 40 -3.2 40 -10 40 C-10 36.7 -10 33.4 -10 30 C-6.7 30 -3.4 30 0 30 C0 20.1 0 10.2 0 0 Z " fill="#000000" transform="translate(200,120)"/>
<path d="M0 0 C6.6 0 13.2 0 20 0 C20 3.3 20 6.6 20 10 C23.3 10 26.6 10 30 10 C30 13.3 30 16.6 30 20 C23.4 20 16.8 20 10 20 C10 16.7 10 13.4 10 10 C6.7 10 3.4 10 0 10 C0 6.7 0 3.4 0 0 Z " fill="#000000" transform="translate(760,280)"/>
<path d="M0 0 C3.3 0 6.6 0 10 0 C10 6.6 10 13.2 10 20 C6.7 20 3.4 20 0 20 C0 23.3 0 26.6 0 30 C-3.3 30 -6.6 30 -10 30 C-10 23.4 -10 16.8 -10 10 C-6.7 10 -3.4 10 0 10 C0 6.7 0 3.4 0 0 Z " fill="#000000" transform="translate(410,210)"/>
<path d="M0 0 C3.3 0 6.6 0 10 0 C10 6.6 10 13.2 10 20 C3.4 20 -3.2 20 -10 20 C-10 16.7 -10 13.4 -10 10 C-6.7 10 -3.4 10 0 10 C0 6.7 0 3.4 0 0 Z " fill="#000000" transform="translate(260,320)"/>
<path d="M0 0 C6.6 0 13.2 0 20 0 C20 3.3 20 6.6 20 10 C16.7 10 13.4 10 10 10 C10 13.3 10 16.6 10 20 C6.7 20 3.4 20 0 20 C0 13.4 0 6.8 0 0 Z " fill="#000000" transform="translate(520,280)"/>
<path d="M0 0 C9.9 0 19.8 0 30 0 C30 3.3 30 6.6 30 10 C20.1 10 10.2 10 0 10 C0 6.7 0 3.4 0 0 Z " fill="#000000" transform="translate(240,260)"/>
<path d="M0 0 C9.9 0 19.8 0 30 0 C30 3.3 30 6.6 30 10 C20.1 10 10.2 10 0 10 C0 6.7 0 3.4 0 0 Z " fill="#000000" transform="translate(500,250)"/>
<path d="M0 0 C3.3 0 6.6 0 10 0 C10 9.9 10 19.8 10 30 C6.7 30 3.4 30 0 30 C0 20.1 0 10.2 0 0 Z " fill="#000000" transform="translate(720,210)"/>
<path d="M0 0 C3.3 0 6.6 0 10 0 C10 3.3 10 6.6 10 10 C13.3 10 16.6 10 20 10 C20 13.3 20 16.6 20 20 C13.4 20 6.8 20 0 20 C0 13.4 0 6.8 0 0 Z " fill="#000000" transform="translate(750,200)"/>
<path d="M0 0 C9.9 0 19.8 0 30 0 C30 3.3 30 6.6 30 10 C20.1 10 10.2 10 0 10 C0 6.7 0 3.4 0 0 Z " fill="#FFFFFF" transform="translate(300,190)"/>
<path d="M0 0 C3.3 0 6.6 0 10 0 C10 9.9 10 19.8 10 30 C6.7 30 3.4 30 0 30 C0 20.1 0 10.2 0 0 Z " fill="#000000" transform="translate(740,170)"/>
<path d="M0 0 C3.3 0 6.6 0 10 0 C10 9.9 10 19.8 10 30 C6.7 30 3.4 30 0 30 C0 20.1 0 10.2 0 0 Z " fill="#000000" transform="translate(730,140)"/>
<path d="M0 0 C3.3 0 6.6 0 10 0 C10 6.6 10 13.2 10 20 C6.7 20 3.4 20 0 20 C0 13.4 0 6.8 0 0 Z " fill="#000000" transform="translate(680,220)"/>
<path d="M0 0 C3.3 0 6.6 0 10 0 C10 3.3 10 6.6 10 10 C6.7 10 3.4 10 0 10 C0 6.7 0 3.4 0 0 Z " fill="#000000" transform="translate(500,160)"/>
<path d="M0 0 C3.3 0 6.6 0 10 0 C10 3.3 10 6.6 10 10 C6.7 10 3.4 10 0 10 C0 6.7 0 3.4 0 0 Z " fill="#000000" transform="translate(280,160)"/>
<path d="M0 0 C3.3 0 6.6 0 10 0 C10 3.3 10 6.6 10 10 C6.7 10 3.4 10 0 10 C0 6.7 0 3.4 0 0 Z " fill="#000000" transform="translate(770,140)"/>
</svg>
