<svg version="1.1" xmlns="http://www.w3.org/2000/svg" viewBox="0 0 3200 3200">
<path d="M0 0 C297 0 594 0 900 0 C900 33 900 66 900 100 C999 100 1098 100 1200 100 C1200 133 1200 166 1200 200 C1233 200 1266 200 1300 200 C1300 233 1300 266 1300 300 C1432 300 1564 300 1700 300 C1700 333 1700 366 1700 400 C1733 400 1766 400 1800 400 C1800 433 1800 466 1800 500 C1833 500 1866 500 1900 500 C1900 698 1900 896 1900 1100 C1867 1100 1834 1100 1800 1100 C1800 1133 1800 1166 1800 1200 C1767 1200 1734 1200 1700 1200 C1700 1266 1700 1332 1700 1400 C1667 1400 1634 1400 1600 1400 C1600 1433 1600 1466 1600 1500 C1567 1500 1534 1500 1500 1500 C1500 1533 1500 1566 1500 1600 C1467 1600 1434 1600 1400 1600 C1400 1633 1400 1666 1400 1700 C1367 1700 1334 1700 1300 1700 C1300 1733 1300 1766 1300 1800 C1234 1800 1168 1800 1100 1800 C1100 1833 1100 1866 1100 1900 C1067 1900 1034 1900 1000 1900 C1000 1933 1000 1966 1000 2000 C967 2000 934 2000 900 2000 C900 2033 900 2066 900 2100 C834 2100 768 2100 700 2100 C700 2133 700 2166 700 2200 C601 2200 502 2200 400 2200 C400 2233 400 2266 400 2300 C235 2300 70 2300 -100 2300 C-100 2333 -100 2366 -100 2400 C-232 2400 -364 2400 -500 2400 C-500 2367 -500 2334 -500 2300 C-566 2300 -632 2300 -700 2300 C-700 2267 -700 2234 -700 2200 C-733 2200 -766 2200 -800 2200 C-800 2035 -800 1870 -800 1700 C-767 1700 -734 1700 -700 1700 C-700 1667 -700 1634 -700 1600 C-667 1600 -634 1600 -600 1600 C-600 1567 -600 1534 -600 1500 C-567 1500 -534 1500 -500 1500 C-500 1335 -500 1170 -500 1000 C-533 1000 -566 1000 -600 1000 C-600 901 -600 802 -600 700 C-567 700 -534 700 -500 700 C-500 601 -500 502 -500 400 C-467 400 -434 400 -400 400 C-400 367 -400 334 -400 300 C-367 300 -334 300 -300 300 C-300 267 -300 234 -300 200 C-267 200 -234 200 -200 200 C-200 167 -200 134 -200 100 C-134 100 -68 100 0 100 C0 67 0 34 0 0 Z " fill="#87D8E9" transform="translate(1100,500)"/>
<path d="M0 0 C99 0 198 0 300 0 C300 33 300 66 300 100 C333 100 366 100 400 100 C400 133 400 166 400 200 C532 200 664 200 800 200 C800 233 800 266 800 300 C833 300 866 300 900 300 C900 333 900 366 900 400 C933 400 966 400 1000 400 C1000 598 1000 796 1000 1000 C967 1000 934 1000 900 1000 C900 1033 900 1066 900 1100 C867 1100 834 1100 800 1100 C800 1166 800 1232 800 1300 C767 1300 734 1300 700 1300 C700 1333 700 1366 700 1400 C667 1400 634 1400 600 1400 C600 1433 600 1466 600 1500 C567 1500 534 1500 500 1500 C500 1533 500 1566 500 1600 C467 1600 434 1600 400 1600 C400 1633 400 1666 400 1700 C334 1700 268 1700 200 1700 C200 1733 200 1766 200 1800 C167 1800 134 1800 100 1800 C100 1833 100 1866 100 1900 C67 1900 34 1900 0 1900 C0 1933 0 1966 0 2000 C-66 2000 -132 2000 -200 2000 C-200 2033 -200 2066 -200 2100 C-299 2100 -398 2100 -500 2100 C-500 2133 -500 2166 -500 2200 C-665 2200 -830 2200 -1000 2200 C-1000 2233 -1000 2266 -1000 2300 C-1132 2300 -1264 2300 -1400 2300 C-1400 2267 -1400 2234 -1400 2200 C-1466 2200 -1532 2200 -1600 2200 C-1600 2167 -1600 2134 -1600 2100 C-1633 2100 -1666 2100 -1700 2100 C-1700 1935 -1700 1770 -1700 1600 C-1667 1600 -1634 1600 -1600 1600 C-1600 1567 -1600 1534 -1600 1500 C-1567 1500 -1534 1500 -1500 1500 C-1500 1467 -1500 1434 -1500 1400 C-1467 1400 -1434 1400 -1400 1400 C-1400 1235 -1400 1070 -1400 900 C-1367 900 -1334 900 -1300 900 C-1300 1032 -1300 1164 -1300 1300 C-1267 1300 -1234 1300 -1200 1300 C-1200 1366 -1200 1432 -1200 1500 C-1167 1500 -1134 1500 -1100 1500 C-1100 1533 -1100 1566 -1100 1600 C-1034 1600 -968 1600 -900 1600 C-900 1567 -900 1534 -900 1500 C-867 1500 -834 1500 -800 1500 C-800 1566 -800 1632 -800 1700 C-668 1700 -536 1700 -400 1700 C-400 1667 -400 1634 -400 1600 C-301 1600 -202 1600 -100 1600 C-100 1567 -100 1534 -100 1500 C-67 1500 -34 1500 0 1500 C0 1467 0 1434 0 1400 C66 1400 132 1400 200 1400 C200 1367 200 1334 200 1300 C233 1300 266 1300 300 1300 C300 1234 300 1168 300 1100 C333 1100 366 1100 400 1100 C400 836 400 572 400 300 C367 300 334 300 300 300 C300 267 300 234 300 200 C267 200 234 200 200 200 C200 167 200 134 200 100 C134 100 68 100 0 100 C0 67 0 34 0 0 Z " fill="currentColor" transform="translate(2000,600)"/>
<path d="M0 0 C66 0 132 0 200 0 C200 66 200 132 200 200 C266 200 332 200 400 200 C400 233 400 266 400 300 C631 300 862 300 1100 300 C1100 267 1100 234 1100 200 C1199 200 1298 200 1400 200 C1400 233 1400 266 1400 300 C1367 300 1334 300 1300 300 C1300 333 1300 366 1300 400 C1234 400 1168 400 1100 400 C1100 433 1100 466 1100 500 C1001 500 902 500 800 500 C800 533 800 566 800 600 C635 600 470 600 300 600 C300 633 300 666 300 700 C234 700 168 700 100 700 C100 667 100 634 100 600 C34 600 -32 600 -100 600 C-100 567 -100 534 -100 500 C-133 500 -166 500 -200 500 C-200 401 -200 302 -200 200 C-167 200 -134 200 -100 200 C-100 167 -100 134 -100 100 C-67 100 -34 100 0 100 C0 67 0 34 0 0 Z " fill="#F6F2A0" transform="translate(600,2100)"/>
<path d="M0 0 C33 0 66 0 100 0 C100 132 100 264 100 400 C133 400 166 400 200 400 C200 466 200 532 200 600 C134 600 68 600 0 600 C0 633 0 666 0 700 C-33 700 -66 700 -100 700 C-100 733 -100 766 -100 800 C-133 800 -166 800 -200 800 C-200 899 -200 998 -200 1100 C-167 1100 -134 1100 -100 1100 C-100 1133 -100 1166 -100 1200 C-34 1200 32 1200 100 1200 C100 1233 100 1266 100 1300 C166 1300 232 1300 300 1300 C300 1267 300 1234 300 1200 C465 1200 630 1200 800 1200 C800 1167 800 1134 800 1100 C899 1100 998 1100 1100 1100 C1100 1067 1100 1034 1100 1000 C1166 1000 1232 1000 1300 1000 C1300 967 1300 934 1300 900 C1333 900 1366 900 1400 900 C1400 867 1400 834 1400 800 C1466 800 1532 800 1600 800 C1600 833 1600 866 1600 900 C1567 900 1534 900 1500 900 C1500 933 1500 966 1500 1000 C1467 1000 1434 1000 1400 1000 C1400 1033 1400 1066 1400 1100 C1334 1100 1268 1100 1200 1100 C1200 1133 1200 1166 1200 1200 C1101 1200 1002 1200 900 1200 C900 1233 900 1266 900 1300 C735 1300 570 1300 400 1300 C400 1333 400 1366 400 1400 C268 1400 136 1400 0 1400 C0 1367 0 1334 0 1300 C-66 1300 -132 1300 -200 1300 C-200 1267 -200 1234 -200 1200 C-233 1200 -266 1200 -300 1200 C-300 1035 -300 870 -300 700 C-267 700 -234 700 -200 700 C-200 667 -200 634 -200 600 C-167 600 -134 600 -100 600 C-100 567 -100 534 -100 500 C-67 500 -34 500 0 500 C0 335 0 170 0 0 Z " fill="currentColor" transform="translate(600,1500)"/>
<path d="M0 0 C66 0 132 0 200 0 C200 33 200 66 200 100 C233 100 266 100 300 100 C300 133 300 166 300 200 C333 200 366 200 400 200 C400 332 400 464 400 600 C367 600 334 600 300 600 C300 633 300 666 300 700 C267 700 234 700 200 700 C200 766 200 832 200 900 C167 900 134 900 100 900 C100 933 100 966 100 1000 C67 1000 34 1000 0 1000 C0 1033 0 1066 0 1100 C-33 1100 -66 1100 -100 1100 C-100 1034 -100 968 -100 900 C-67 900 -34 900 0 900 C0 603 0 306 0 0 Z " fill="#F6F2A0" transform="translate(2500,900)"/>
<path d="M0 0 C297 0 594 0 900 0 C900 33 900 66 900 100 C636 100 372 100 100 100 C100 133 100 166 100 200 C34 200 -32 200 -100 200 C-100 233 -100 266 -100 300 C-133 300 -166 300 -200 300 C-200 333 -200 366 -200 400 C-233 400 -266 400 -300 400 C-300 433 -300 466 -300 500 C-333 500 -366 500 -400 500 C-400 566 -400 632 -400 700 C-433 700 -466 700 -500 700 C-500 601 -500 502 -500 400 C-467 400 -434 400 -400 400 C-400 367 -400 334 -400 300 C-367 300 -334 300 -300 300 C-300 267 -300 234 -300 200 C-267 200 -234 200 -200 200 C-200 167 -200 134 -200 100 C-134 100 -68 100 0 100 C0 67 0 34 0 0 Z " fill="currentColor" transform="translate(1100,500)"/>
<path d="M0 0 C66 0 132 0 200 0 C200 33 200 66 200 100 C167 100 134 100 100 100 C100 133 100 166 100 200 C34 200 -32 200 -100 200 C-100 167 -100 134 -100 100 C-67 100 -34 100 0 100 C0 67 0 34 0 0 Z " fill="#F6F2A0" transform="translate(2100,2100)"/>
<path d="M0 0 C33 0 66 0 100 0 C100 99 100 198 100 300 C67 300 34 300 0 300 C0 201 0 102 0 0 Z " fill="currentColor" transform="translate(500,1200)"/>
<path d="M0 0 C33 0 66 0 100 0 C100 33 100 66 100 100 C67 100 34 100 0 100 C0 67 0 34 0 0 Z " fill="#F6F2A0" transform="translate(2300,2000)"/>
</svg>
