<svg version="1.1" xmlns="http://www.w3.org/2000/svg" viewBox="0 0 3200 3200">
<path d="M0 0 C264 0 528 0 800 0 C800 33 800 66 800 100 C899 100 998 100 1100 100 C1100 133 1100 166 1100 200 C1133 200 1166 200 1200 200 C1200 398 1200 596 1200 800 C540 800 -120 800 -800 800 C-800 833 -800 866 -800 900 C-833 900 -866 900 -900 900 C-900 636 -900 372 -900 100 C-603 100 -306 100 0 100 C0 67 0 34 0 0 Z " fill="#E96969" transform="translate(1500,300)"/>
<path d="M0 0 C264 0 528 0 800 0 C800 33 800 66 800 100 C866 100 932 100 1000 100 C1000 298 1000 496 1000 700 C967 700 934 700 900 700 C900 733 900 766 900 800 C273 800 -354 800 -1000 800 C-1000 767 -1000 734 -1000 700 C-1033 700 -1066 700 -1100 700 C-1100 502 -1100 304 -1100 100 C-737 100 -374 100 0 100 C0 67 0 34 0 0 Z " fill="#E96969" transform="translate(1700,2200)"/>
<path d="M0 0 C462 0 924 0 1400 0 C1400 231 1400 462 1400 700 C1169 700 938 700 700 700 C700 733 700 766 700 800 C271 800 -158 800 -600 800 C-600 569 -600 338 -600 100 C-402 100 -204 100 0 100 C0 67 0 34 0 0 Z " fill="#E96969" transform="translate(1200,1300)"/>
<path d="M0 0 C264 0 528 0 800 0 C800 33 800 66 800 100 C899 100 998 100 1100 100 C1100 133 1100 166 1100 200 C1133 200 1166 200 1200 200 C1200 398 1200 596 1200 800 C540 800 -120 800 -800 800 C-800 833 -800 866 -800 900 C-833 900 -866 900 -900 900 C-900 636 -900 372 -900 100 C-603 100 -306 100 0 100 C0 67 0 34 0 0 Z M100 100 C100 133 100 166 100 200 C-197 200 -494 200 -800 200 C-800 332 -800 464 -800 600 C-767 600 -734 600 -700 600 C-700 633 -700 666 -700 700 C-106 700 488 700 1100 700 C1100 568 1100 436 1100 300 C1067 300 1034 300 1000 300 C1000 267 1000 234 1000 200 C901 200 802 200 700 200 C700 167 700 134 700 100 C502 100 304 100 100 100 Z " fill="currentColor" transform="translate(1500,300)"/>
<path d="M0 0 C462 0 924 0 1400 0 C1400 231 1400 462 1400 700 C1169 700 938 700 700 700 C700 733 700 766 700 800 C271 800 -158 800 -600 800 C-600 569 -600 338 -600 100 C-402 100 -204 100 0 100 C0 67 0 34 0 0 Z M0 100 C0 133 0 166 0 200 C-165 200 -330 200 -500 200 C-500 365 -500 530 -500 700 C-137 700 226 700 600 700 C600 667 600 634 600 600 C831 600 1062 600 1300 600 C1300 435 1300 270 1300 100 C871 100 442 100 0 100 Z " fill="currentColor" transform="translate(1200,1300)"/>
<path d="M0 0 C627 0 1254 0 1900 0 C1900 33 1900 66 1900 100 C1273 100 646 100 0 100 C0 67 0 34 0 0 Z " fill="currentColor" transform="translate(700,2900)"/>
<path d="M0 0 C363 0 726 0 1100 0 C1100 33 1100 66 1100 100 C770 100 440 100 100 100 C100 265 100 430 100 600 C67 600 34 600 0 600 C0 402 0 204 0 0 Z " fill="currentColor" transform="translate(600,2300)"/>
<path d="M0 0 C264 0 528 0 800 0 C800 33 800 66 800 100 C866 100 932 100 1000 100 C1000 298 1000 496 1000 700 C967 700 934 700 900 700 C900 535 900 370 900 200 C834 200 768 200 700 200 C700 167 700 134 700 100 C469 100 238 100 0 100 C0 67 0 34 0 0 Z " fill="currentColor" transform="translate(1700,2200)"/>
</svg>
