<svg version="1.1" xmlns="http://www.w3.org/2000/svg" viewBox="0 0 3200 3200">
<path d="M0 0 C99 0 198 0 300 0 C300 33 300 66 300 100 C498 100 696 100 900 100 C900 133 900 166 900 200 C933 200 966 200 1000 200 C1000 233 1000 266 1000 300 C1033 300 1066 300 1100 300 C1100 366 1100 432 1100 500 C1133 500 1166 500 1200 500 C1200 797 1200 1094 1200 1400 C1233 1400 1266 1400 1300 1400 C1300 1433 1300 1466 1300 1500 C1333 1500 1366 1500 1400 1500 C1400 1566 1400 1632 1400 1700 C1367 1700 1334 1700 1300 1700 C1300 1733 1300 1766 1300 1800 C1267 1800 1234 1800 1200 1800 C1200 1833 1200 1866 1200 1900 C1101 1900 1002 1900 900 1900 C900 1933 900 1966 900 2000 C801 2000 702 2000 600 2000 C600 2066 600 2132 600 2200 C567 2200 534 2200 500 2200 C500 2266 500 2332 500 2400 C401 2400 302 2400 200 2400 C200 2367 200 2334 200 2300 C167 2300 134 2300 100 2300 C100 2267 100 2234 100 2200 C67 2200 34 2200 0 2200 C0 2167 0 2134 0 2100 C-198 2100 -396 2100 -600 2100 C-600 2067 -600 2034 -600 2000 C-666 2000 -732 2000 -800 2000 C-800 1835 -800 1670 -800 1500 C-767 1500 -734 1500 -700 1500 C-700 1467 -700 1434 -700 1400 C-667 1400 -634 1400 -600 1400 C-600 1070 -600 740 -600 400 C-567 400 -534 400 -500 400 C-500 367 -500 334 -500 300 C-467 300 -434 300 -400 300 C-400 267 -400 234 -400 200 C-367 200 -334 200 -300 200 C-300 167 -300 134 -300 100 C-201 100 -102 100 0 100 C0 67 0 34 0 0 Z " fill="#EDE989" transform="translate(1300,400)"/>
<path d="M0 0 C99 0 198 0 300 0 C300 33 300 66 300 100 C498 100 696 100 900 100 C900 133 900 166 900 200 C933 200 966 200 1000 200 C1000 233 1000 266 1000 300 C1033 300 1066 300 1100 300 C1100 366 1100 432 1100 500 C1133 500 1166 500 1200 500 C1200 797 1200 1094 1200 1400 C1233 1400 1266 1400 1300 1400 C1300 1433 1300 1466 1300 1500 C1333 1500 1366 1500 1400 1500 C1400 1566 1400 1632 1400 1700 C1367 1700 1334 1700 1300 1700 C1300 1733 1300 1766 1300 1800 C1267 1800 1234 1800 1200 1800 C1200 1833 1200 1866 1200 1900 C1101 1900 1002 1900 900 1900 C900 1933 900 1966 900 2000 C801 2000 702 2000 600 2000 C600 2066 600 2132 600 2200 C567 2200 534 2200 500 2200 C500 2266 500 2332 500 2400 C401 2400 302 2400 200 2400 C200 2367 200 2334 200 2300 C167 2300 134 2300 100 2300 C100 2267 100 2234 100 2200 C67 2200 34 2200 0 2200 C0 2167 0 2134 0 2100 C-198 2100 -396 2100 -600 2100 C-600 2067 -600 2034 -600 2000 C-666 2000 -732 2000 -800 2000 C-800 1835 -800 1670 -800 1500 C-767 1500 -734 1500 -700 1500 C-700 1467 -700 1434 -700 1400 C-667 1400 -634 1400 -600 1400 C-600 1070 -600 740 -600 400 C-567 400 -534 400 -500 400 C-500 367 -500 334 -500 300 C-467 300 -434 300 -400 300 C-400 267 -400 234 -400 200 C-367 200 -334 200 -300 200 C-300 167 -300 134 -300 100 C-201 100 -102 100 0 100 C0 67 0 34 0 0 Z M100 100 C100 133 100 166 100 200 C1 200 -98 200 -200 200 C-200 233 -200 266 -200 300 C-233 300 -266 300 -300 300 C-300 333 -300 366 -300 400 C-333 400 -366 400 -400 400 C-400 433 -400 466 -400 500 C-433 500 -466 500 -500 500 C-500 830 -500 1160 -500 1500 C-533 1500 -566 1500 -600 1500 C-600 1533 -600 1566 -600 1600 C-633 1600 -666 1600 -700 1600 C-700 1699 -700 1798 -700 1900 C-634 1900 -568 1900 -500 1900 C-500 1933 -500 1966 -500 2000 C-269 2000 -38 2000 200 2000 C200 1967 200 1934 200 1900 C398 1900 596 1900 800 1900 C800 1867 800 1834 800 1800 C899 1800 998 1800 1100 1800 C1100 1767 1100 1734 1100 1700 C1133 1700 1166 1700 1200 1700 C1200 1634 1200 1568 1200 1500 C1167 1500 1134 1500 1100 1500 C1100 1203 1100 906 1100 600 C1067 600 1034 600 1000 600 C1000 534 1000 468 1000 400 C967 400 934 400 900 400 C900 367 900 334 900 300 C867 300 834 300 800 300 C800 267 800 234 800 200 C602 200 404 200 200 200 C200 167 200 134 200 100 C167 100 134 100 100 100 Z " fill="currentColor" transform="translate(1300,400)"/>
<path d="M0 0 C99 0 198 0 300 0 C300 33 300 66 300 100 C267 100 234 100 200 100 C200 166 200 232 200 300 C134 300 68 300 0 300 C0 201 0 102 0 0 Z " fill="#EDE989" transform="translate(1500,2400)"/>
</svg>
