<svg version="1.1" xmlns="http://www.w3.org/2000/svg" viewBox="0 0 3200 3200">
<path d="M0 0 C165 0 330 0 500 0 C500 33 500 66 500 100 C533 100 566 100 600 100 C600 133 600 166 600 200 C666 200 732 200 800 200 C800 167 800 134 800 100 C866 100 932 100 1000 100 C1000 133 1000 166 1000 200 C1066 200 1132 200 1200 200 C1200 233 1200 266 1200 300 C1233 300 1266 300 1300 300 C1300 333 1300 366 1300 400 C1333 400 1366 400 1400 400 C1400 499 1400 598 1400 700 C1367 700 1334 700 1300 700 C1300 733 1300 766 1300 800 C1333 800 1366 800 1400 800 C1400 833 1400 866 1400 900 C1433 900 1466 900 1500 900 C1500 933 1500 966 1500 1000 C1533 1000 1566 1000 1600 1000 C1600 1066 1600 1132 1600 1200 C1633 1200 1666 1200 1700 1200 C1700 1332 1700 1464 1700 1600 C1667 1600 1634 1600 1600 1600 C1600 1633 1600 1666 1600 1700 C1567 1700 1534 1700 1500 1700 C1500 1898 1500 2096 1500 2300 C1467 2300 1434 2300 1400 2300 C1400 2366 1400 2432 1400 2500 C1334 2500 1268 2500 1200 2500 C1200 2533 1200 2566 1200 2600 C1101 2600 1002 2600 900 2600 C900 2633 900 2666 900 2700 C867 2700 834 2700 800 2700 C800 2733 800 2766 800 2800 C767 2800 734 2800 700 2800 C700 2833 700 2866 700 2900 C469 2900 238 2900 0 2900 C0 2867 0 2834 0 2800 C-66 2800 -132 2800 -200 2800 C-200 2734 -200 2668 -200 2600 C-365 2600 -530 2600 -700 2600 C-700 2567 -700 2534 -700 2500 C-733 2500 -766 2500 -800 2500 C-800 2434 -800 2368 -800 2300 C-833 2300 -866 2300 -900 2300 C-900 2201 -900 2102 -900 2000 C-867 2000 -834 2000 -800 2000 C-800 1967 -800 1934 -800 1900 C-866 1900 -932 1900 -1000 1900 C-1000 1867 -1000 1834 -1000 1800 C-1033 1800 -1066 1800 -1100 1800 C-1100 1569 -1100 1338 -1100 1100 C-1067 1100 -1034 1100 -1000 1100 C-1000 1067 -1000 1034 -1000 1000 C-967 1000 -934 1000 -900 1000 C-900 868 -900 736 -900 600 C-867 600 -834 600 -800 600 C-800 567 -800 534 -800 500 C-767 500 -734 500 -700 500 C-700 467 -700 434 -700 400 C-667 400 -634 400 -600 400 C-600 367 -600 334 -600 300 C-468 300 -336 300 -200 300 C-200 267 -200 234 -200 200 C-167 200 -134 200 -100 200 C-100 167 -100 134 -100 100 C-67 100 -34 100 0 100 C0 67 0 34 0 0 Z M100 900 C100 933 100 966 100 1000 C67 1000 34 1000 0 1000 C0 1033 0 1066 0 1100 C-33 1100 -66 1100 -100 1100 C-100 1133 -100 1166 -100 1200 C-133 1200 -166 1200 -200 1200 C-200 1332 -200 1464 -200 1600 C-167 1600 -134 1600 -100 1600 C-100 1666 -100 1732 -100 1800 C-67 1800 -34 1800 0 1800 C0 1833 0 1866 0 1900 C99 1900 198 1900 300 1900 C300 1933 300 1966 300 2000 C333 2000 366 2000 400 2000 C400 1967 400 1934 400 1900 C466 1900 532 1900 600 1900 C600 1867 600 1834 600 1800 C633 1800 666 1800 700 1800 C700 1767 700 1734 700 1700 C733 1700 766 1700 800 1700 C800 1634 800 1568 800 1500 C833 1500 866 1500 900 1500 C900 1467 900 1434 900 1400 C867 1400 834 1400 800 1400 C800 1301 800 1202 800 1100 C734 1100 668 1100 600 1100 C600 1067 600 1034 600 1000 C567 1000 534 1000 500 1000 C500 967 500 934 500 900 C368 900 236 900 100 900 Z " fill="#94999D" transform="translate(1300,200)"/>
<path d="M0 0 C264 0 528 0 800 0 C800 33 800 66 800 100 C866 100 932 100 1000 100 C1000 166 1000 232 1000 300 C1033 300 1066 300 1100 300 C1100 366 1100 432 1100 500 C1133 500 1166 500 1200 500 C1200 698 1200 896 1200 1100 C1167 1100 1134 1100 1100 1100 C1100 1133 1100 1166 1100 1200 C1067 1200 1034 1200 1000 1200 C1000 1233 1000 1266 1000 1300 C967 1300 934 1300 900 1300 C900 1333 900 1366 900 1400 C834 1400 768 1400 700 1400 C700 1433 700 1466 700 1500 C469 1500 238 1500 0 1500 C0 1467 0 1434 0 1400 C-66 1400 -132 1400 -200 1400 C-200 1334 -200 1268 -200 1200 C-233 1200 -266 1200 -300 1200 C-300 1134 -300 1068 -300 1000 C-333 1000 -366 1000 -400 1000 C-400 835 -400 670 -400 500 C-367 500 -334 500 -300 500 C-300 401 -300 302 -300 200 C-267 200 -234 200 -200 200 C-200 167 -200 134 -200 100 C-134 100 -68 100 0 100 C0 67 0 34 0 0 Z M200 200 C200 233 200 266 200 300 C167 300 134 300 100 300 C100 333 100 366 100 400 C67 400 34 400 0 400 C0 433 0 466 0 500 C-33 500 -66 500 -100 500 C-100 632 -100 764 -100 900 C-67 900 -34 900 0 900 C0 966 0 1032 0 1100 C33 1100 66 1100 100 1100 C100 1133 100 1166 100 1200 C199 1200 298 1200 400 1200 C400 1233 400 1266 400 1300 C433 1300 466 1300 500 1300 C500 1267 500 1234 500 1200 C566 1200 632 1200 700 1200 C700 1167 700 1134 700 1100 C733 1100 766 1100 800 1100 C800 1067 800 1034 800 1000 C833 1000 866 1000 900 1000 C900 934 900 868 900 800 C933 800 966 800 1000 800 C1000 767 1000 734 1000 700 C967 700 934 700 900 700 C900 601 900 502 900 400 C834 400 768 400 700 400 C700 367 700 334 700 300 C667 300 634 300 600 300 C600 267 600 234 600 200 C468 200 336 200 200 200 Z " fill="currentColor" transform="translate(1200,900)"/>
<path d="M0 0 C33 0 66 0 100 0 C100 66 100 132 100 200 C67 200 34 200 0 200 C0 233 0 266 0 300 C33 300 66 300 100 300 C100 333 100 366 100 400 C166 400 232 400 300 400 C300 433 300 466 300 500 C201 500 102 500 0 500 C0 533 0 566 0 600 C-33 600 -66 600 -100 600 C-100 633 -100 666 -100 700 C-133 700 -166 700 -200 700 C-200 865 -200 1030 -200 1200 C-167 1200 -134 1200 -100 1200 C-100 1233 -100 1266 -100 1300 C-34 1300 32 1300 100 1300 C100 1399 100 1498 100 1600 C67 1600 34 1600 0 1600 C0 1633 0 1666 0 1700 C33 1700 66 1700 100 1700 C100 1766 100 1832 100 1900 C133 1900 166 1900 200 1900 C200 1933 200 1966 200 2000 C299 2000 398 2000 500 2000 C500 1967 500 1934 500 1900 C566 1900 632 1900 700 1900 C700 1999 700 2098 700 2200 C766 2200 832 2200 900 2200 C900 2233 900 2266 900 2300 C1065 2300 1230 2300 1400 2300 C1400 2267 1400 2234 1400 2200 C1433 2200 1466 2200 1500 2200 C1500 2167 1500 2134 1500 2100 C1533 2100 1566 2100 1600 2100 C1600 2034 1600 1968 1600 1900 C1666 1900 1732 1900 1800 1900 C1800 1933 1800 1966 1800 2000 C1833 2000 1866 2000 1900 2000 C1900 1967 1900 1934 1900 1900 C1966 1900 2032 1900 2100 1900 C2100 1834 2100 1768 2100 1700 C2133 1700 2166 1700 2200 1700 C2200 1601 2200 1502 2200 1400 C2167 1400 2134 1400 2100 1400 C2100 1334 2100 1268 2100 1200 C2166 1200 2232 1200 2300 1200 C2300 1398 2300 1596 2300 1800 C2267 1800 2234 1800 2200 1800 C2200 1866 2200 1932 2200 2000 C2134 2000 2068 2000 2000 2000 C2000 2033 2000 2066 2000 2100 C1901 2100 1802 2100 1700 2100 C1700 2133 1700 2166 1700 2200 C1667 2200 1634 2200 1600 2200 C1600 2233 1600 2266 1600 2300 C1567 2300 1534 2300 1500 2300 C1500 2333 1500 2366 1500 2400 C1269 2400 1038 2400 800 2400 C800 2367 800 2334 800 2300 C734 2300 668 2300 600 2300 C600 2234 600 2168 600 2100 C435 2100 270 2100 100 2100 C100 2067 100 2034 100 2000 C67 2000 34 2000 0 2000 C0 1934 0 1868 0 1800 C-33 1800 -66 1800 -100 1800 C-100 1701 -100 1602 -100 1500 C-67 1500 -34 1500 0 1500 C0 1467 0 1434 0 1400 C-66 1400 -132 1400 -200 1400 C-200 1367 -200 1334 -200 1300 C-233 1300 -266 1300 -300 1300 C-300 1069 -300 838 -300 600 C-267 600 -234 600 -200 600 C-200 567 -200 534 -200 500 C-167 500 -134 500 -100 500 C-100 368 -100 236 -100 100 C-67 100 -34 100 0 100 C0 67 0 34 0 0 Z " fill="currentColor" transform="translate(500,700)"/>
<path d="M0 0 C198 0 396 0 600 0 C600 33 600 66 600 100 C633 100 666 100 700 100 C700 133 700 166 700 200 C733 200 766 200 800 200 C800 233 800 266 800 300 C734 300 668 300 600 300 C600 267 600 234 600 200 C567 200 534 200 500 200 C500 167 500 134 500 100 C368 100 236 100 100 100 C100 133 100 166 100 200 C67 200 34 200 0 200 C0 233 0 266 0 300 C-33 300 -66 300 -100 300 C-100 333 -100 366 -100 400 C-133 400 -166 400 -200 400 C-200 532 -200 664 -200 800 C-167 800 -134 800 -100 800 C-100 866 -100 932 -100 1000 C-67 1000 -34 1000 0 1000 C0 1033 0 1066 0 1100 C99 1100 198 1100 300 1100 C300 1133 300 1166 300 1200 C333 1200 366 1200 400 1200 C400 1167 400 1134 400 1100 C466 1100 532 1100 600 1100 C600 1067 600 1034 600 1000 C633 1000 666 1000 700 1000 C700 967 700 934 700 900 C733 900 766 900 800 900 C800 966 800 1032 800 1100 C767 1100 734 1100 700 1100 C700 1133 700 1166 700 1200 C634 1200 568 1200 500 1200 C500 1233 500 1266 500 1300 C401 1300 302 1300 200 1300 C200 1267 200 1234 200 1200 C101 1200 2 1200 -100 1200 C-100 1167 -100 1134 -100 1100 C-133 1100 -166 1100 -200 1100 C-200 1034 -200 968 -200 900 C-233 900 -266 900 -300 900 C-300 702 -300 504 -300 300 C-267 300 -234 300 -200 300 C-200 267 -200 234 -200 200 C-167 200 -134 200 -100 200 C-100 167 -100 134 -100 100 C-67 100 -34 100 0 100 C0 67 0 34 0 0 Z " fill="#9BADB7" transform="translate(1300,1000)"/>
<path d="M0 0 C165 0 330 0 500 0 C500 33 500 66 500 100 C533 100 566 100 600 100 C600 133 600 166 600 200 C666 200 732 200 800 200 C800 167 800 134 800 100 C866 100 932 100 1000 100 C1000 133 1000 166 1000 200 C967 200 934 200 900 200 C900 233 900 266 900 300 C834 300 768 300 700 300 C700 333 700 366 700 400 C634 400 568 400 500 400 C500 334 500 268 500 200 C467 200 434 200 400 200 C400 167 400 134 400 100 C301 100 202 100 100 100 C100 133 100 166 100 200 C67 200 34 200 0 200 C0 233 0 266 0 300 C-33 300 -66 300 -100 300 C-100 366 -100 432 -100 500 C-166 500 -232 500 -300 500 C-300 467 -300 434 -300 400 C-399 400 -498 400 -600 400 C-600 367 -600 334 -600 300 C-468 300 -336 300 -200 300 C-200 267 -200 234 -200 200 C-167 200 -134 200 -100 200 C-100 167 -100 134 -100 100 C-67 100 -34 100 0 100 C0 67 0 34 0 0 Z " fill="currentColor" transform="translate(1300,200)"/>
<path d="M0 0 C66 0 132 0 200 0 C200 33 200 66 200 100 C233 100 266 100 300 100 C300 133 300 166 300 200 C333 200 366 200 400 200 C400 299 400 398 400 500 C367 500 334 500 300 500 C300 533 300 566 300 600 C333 600 366 600 400 600 C400 633 400 666 400 700 C433 700 466 700 500 700 C500 733 500 766 500 800 C533 800 566 800 600 800 C600 866 600 932 600 1000 C633 1000 666 1000 700 1000 C700 1132 700 1264 700 1400 C667 1400 634 1400 600 1400 C600 1301 600 1202 600 1100 C567 1100 534 1100 500 1100 C500 1034 500 968 500 900 C467 900 434 900 400 900 C400 867 400 834 400 800 C367 800 334 800 300 800 C300 767 300 734 300 700 C234 700 168 700 100 700 C100 667 100 634 100 600 C133 600 166 600 200 600 C200 534 200 468 200 400 C233 400 266 400 300 400 C300 367 300 334 300 300 C267 300 234 300 200 300 C200 267 200 234 200 200 C167 200 134 200 100 200 C100 167 100 134 100 100 C67 100 34 100 0 100 C0 67 0 34 0 0 Z " fill="currentColor" transform="translate(2300,400)"/>
<path d="M0 0 C33 0 66 0 100 0 C100 66 100 132 100 200 C133 200 166 200 200 200 C200 266 200 332 200 400 C167 400 134 400 100 400 C100 367 100 334 100 300 C67 300 34 300 0 300 C0 201 0 102 0 0 Z " fill="#9BADB7" transform="translate(2100,1300)"/>
<path d="M0 0 C33 0 66 0 100 0 C100 66 100 132 100 200 C67 200 34 200 0 200 C0 134 0 68 0 0 Z " fill="#9BADB7" transform="translate(2100,1700)"/>
<path d="M0 0 C33 0 66 0 100 0 C100 33 100 66 100 100 C67 100 34 100 0 100 C0 67 0 34 0 0 Z " fill="currentColor" transform="translate(2800,1800)"/>
<path d="M0 0 C33 0 66 0 100 0 C100 33 100 66 100 100 C67 100 34 100 0 100 C0 67 0 34 0 0 Z " fill="currentColor" transform="translate(600,600)"/>
</svg>
