<svg version="1.1" xmlns="http://www.w3.org/2000/svg" viewBox="0 0 3200 3200">
<path d="M0 0 C165 0 330 0 500 0 C500 33 500 66 500 100 C533 100 566 100 600 100 C600 199 600 298 600 400 C633 400 666 400 700 400 C700 466 700 532 700 600 C667 600 634 600 600 600 C600 666 600 732 600 800 C534 800 468 800 400 800 C400 833 400 866 400 900 C268 900 136 900 0 900 C0 933 0 966 0 1000 C-33 1000 -66 1000 -100 1000 C-100 1033 -100 1066 -100 1100 C-133 1100 -166 1100 -200 1100 C-200 1133 -200 1166 -200 1200 C-233 1200 -266 1200 -300 1200 C-300 1266 -300 1332 -300 1400 C-267 1400 -234 1400 -200 1400 C-200 1532 -200 1664 -200 1800 C-134 1800 -68 1800 0 1800 C0 1833 0 1866 0 1900 C66 1900 132 1900 200 1900 C200 1933 200 1966 200 2000 C101 2000 2 2000 -100 2000 C-100 1967 -100 1934 -100 1900 C-199 1900 -298 1900 -400 1900 C-400 1933 -400 1966 -400 2000 C-598 2000 -796 2000 -1000 2000 C-1000 1967 -1000 1934 -1000 1900 C-1033 1900 -1066 1900 -1100 1900 C-1100 1867 -1100 1834 -1100 1800 C-1133 1800 -1166 1800 -1200 1800 C-1200 1668 -1200 1536 -1200 1400 C-1167 1400 -1134 1400 -1100 1400 C-1100 1334 -1100 1268 -1100 1200 C-1067 1200 -1034 1200 -1000 1200 C-1000 1167 -1000 1134 -1000 1100 C-769 1100 -538 1100 -300 1100 C-300 1067 -300 1034 -300 1000 C-267 1000 -234 1000 -200 1000 C-200 967 -200 934 -200 900 C-167 900 -134 900 -100 900 C-100 867 -100 834 -100 800 C-133 800 -166 800 -200 800 C-200 602 -200 404 -200 200 C-167 200 -134 200 -100 200 C-100 167 -100 134 -100 100 C-67 100 -34 100 0 100 C0 67 0 34 0 0 Z M100 100 C100 133 100 166 100 200 C67 200 34 200 0 200 C0 233 0 266 0 300 C-33 300 -66 300 -100 300 C-100 432 -100 564 -100 700 C-67 700 -34 700 0 700 C0 733 0 766 0 800 C99 800 198 800 300 800 C300 767 300 734 300 700 C366 700 432 700 500 700 C500 634 500 568 500 500 C533 500 566 500 600 500 C600 467 600 434 600 400 C567 400 534 400 500 400 C500 334 500 268 500 200 C467 200 434 200 400 200 C400 167 400 134 400 100 C301 100 202 100 100 100 Z M-900 1200 C-900 1233 -900 1266 -900 1300 C-933 1300 -966 1300 -1000 1300 C-1000 1366 -1000 1432 -1000 1500 C-1033 1500 -1066 1500 -1100 1500 C-1100 1566 -1100 1632 -1100 1700 C-1067 1700 -1034 1700 -1000 1700 C-1000 1733 -1000 1766 -1000 1800 C-967 1800 -934 1800 -900 1800 C-900 1833 -900 1866 -900 1900 C-768 1900 -636 1900 -500 1900 C-500 1867 -500 1834 -500 1800 C-467 1800 -434 1800 -400 1800 C-400 1734 -400 1668 -400 1600 C-367 1600 -334 1600 -300 1600 C-300 1567 -300 1534 -300 1500 C-333 1500 -366 1500 -400 1500 C-400 1434 -400 1368 -400 1300 C-433 1300 -466 1300 -500 1300 C-500 1267 -500 1234 -500 1200 C-632 1200 -764 1200 -900 1200 Z " fill="currentColor" transform="translate(1500,100)"/>
<path d="M0 0 C198 0 396 0 600 0 C600 33 600 66 600 100 C633 100 666 100 700 100 C700 166 700 232 700 300 C733 300 766 300 800 300 C800 432 800 564 800 700 C767 700 734 700 700 700 C700 733 700 766 700 800 C667 800 634 800 600 800 C600 833 600 866 600 900 C534 900 468 900 400 900 C400 933 400 966 400 1000 C301 1000 202 1000 100 1000 C100 967 100 934 100 900 C34 900 -32 900 -100 900 C-100 867 -100 834 -100 800 C-133 800 -166 800 -200 800 C-200 635 -200 470 -200 300 C-266 300 -332 300 -400 300 C-400 267 -400 234 -400 200 C-301 200 -202 200 -100 200 C-100 167 -100 134 -100 100 C-67 100 -34 100 0 100 C0 67 0 34 0 0 Z M100 100 C100 133 100 166 100 200 C67 200 34 200 0 200 C0 233 0 266 0 300 C-33 300 -66 300 -100 300 C-100 432 -100 564 -100 700 C-67 700 -34 700 0 700 C0 733 0 766 0 800 C66 800 132 800 200 800 C200 833 200 866 200 900 C233 900 266 900 300 900 C300 867 300 834 300 800 C366 800 432 800 500 800 C500 767 500 734 500 700 C533 700 566 700 600 700 C600 667 600 634 600 600 C633 600 666 600 700 600 C700 534 700 468 700 400 C667 400 634 400 600 400 C600 334 600 268 600 200 C567 200 534 200 500 200 C500 167 500 134 500 100 C368 100 236 100 100 100 Z " fill="currentColor" transform="translate(2100,1900)"/>
</svg>
