<svg version="1.1" xmlns="http://www.w3.org/2000/svg" viewBox="0 0 3200 3200">
<path d="M0 0 C132 0 264 0 400 0 C400 33 400 66 400 100 C433 100 466 100 500 100 C500 166 500 232 500 300 C797 300 1094 300 1400 300 C1400 366 1400 432 1400 500 C1433 500 1466 500 1500 500 C1500 566 1500 632 1500 700 C1467 700 1434 700 1400 700 C1400 1228 1400 1756 1400 2300 C1367 2300 1334 2300 1300 2300 C1300 2399 1300 2498 1300 2600 C673 2600 46 2600 -600 2600 C-600 2534 -600 2468 -600 2400 C-633 2400 -666 2400 -700 2400 C-700 1872 -700 1344 -700 800 C-733 800 -766 800 -800 800 C-800 701 -800 602 -800 500 C-767 500 -734 500 -700 500 C-700 467 -700 434 -700 400 C-469 400 -238 400 0 400 C0 268 0 136 0 0 Z " fill="currentColor" transform="translate(1300,300)"/>
<path d="M0 0 C66 0 132 0 200 0 C200 33 200 66 200 100 C167 100 134 100 100 100 C100 661 100 1222 100 1800 C-98 1800 -296 1800 -500 1800 C-500 1635 -500 1470 -500 1300 C-533 1300 -566 1300 -600 1300 C-600 937 -600 574 -600 200 C-567 200 -534 200 -500 200 C-500 167 -500 134 -500 100 C-335 100 -170 100 0 100 C0 67 0 34 0 0 Z " fill="#9BADB7" transform="translate(1800,1000)"/>
<path d="M0 0 C165 0 330 0 500 0 C500 495 500 990 500 1500 C467 1500 434 1500 400 1500 C400 1599 400 1698 400 1800 C235 1800 70 1800 -100 1800 C-100 1272 -100 744 -100 200 C-67 200 -34 200 0 200 C0 134 0 68 0 0 Z " fill="#9BADB7" transform="translate(2100,1000)"/>
<path d="M0 0 C132 0 264 0 400 0 C400 429 400 858 400 1300 C433 1300 466 1300 500 1300 C500 1432 500 1564 500 1700 C368 1700 236 1700 100 1700 C100 1634 100 1568 100 1500 C67 1500 34 1500 0 1500 C0 1005 0 510 0 0 Z " fill="#9BADB7" transform="translate(700,1100)"/>
<path d="M0 0 C66 0 132 0 200 0 C200 33 200 66 200 100 C233 100 266 100 300 100 C300 199 300 298 300 400 C333 400 366 400 400 400 C400 367 400 334 400 300 C664 300 928 300 1200 300 C1200 366 1200 432 1200 500 C903 500 606 500 300 500 C300 533 300 566 300 600 C-63 600 -426 600 -800 600 C-800 534 -800 468 -800 400 C-536 400 -272 400 0 400 C0 268 0 136 0 0 Z " fill="#9BADB7" transform="translate(1400,400)"/>
</svg>
